<svg xmlns="http://www.w3.org/2000/svg" xmlns:xlink="http://www.w3.org/1999/xlink" width="226" zoomAndPan="magnify" viewBox="0 0 169.92 170.249993" height="226" preserveAspectRatio="xMidYMid meet" version="1.0"><defs><clipPath id="bcab9ac0df"><path d="M 0.332031 0 L 169.09375 0 L 169.09375 168.761719 L 0.332031 168.761719 Z M 0.332031 0 " clip-rule="nonzero"/></clipPath><clipPath id="a7764f4be3"><path d="M 84.714844 0 C 38.109375 0 0.332031 37.777344 0.332031 84.378906 C 0.332031 130.984375 38.109375 168.761719 84.714844 168.761719 C 131.316406 168.761719 169.09375 130.984375 169.09375 84.378906 C 169.09375 37.777344 131.316406 0 84.714844 0 Z M 84.714844 0 " clip-rule="nonzero"/></clipPath><clipPath id="b97afbc3fb"><path d="M 34 34 L 136 34 L 136 135.332031 L 34 135.332031 Z M 34 34 " clip-rule="nonzero"/></clipPath></defs><g clip-path="url(#bcab9ac0df)"><g clip-path="url(#a7764f4be3)"><path fill="#fddf64" d="M 0.332031 0 L 169.09375 0 L 169.09375 168.761719 L 0.332031 168.761719 Z M 0.332031 0 " fill-opacity="1" fill-rule="nonzero"/></g></g><path fill="#ffffff" d="M 103.691406 48.742188 C 105.585938 49.261719 107.113281 50.316406 108.273438 51.902344 C 108.390625 52.058594 108.53125 52.191406 108.699219 52.292969 C 108.867188 52.394531 109.046875 52.460938 109.242188 52.488281 C 109.4375 52.519531 109.628906 52.511719 109.820312 52.464844 C 110.011719 52.417969 110.183594 52.335938 110.34375 52.222656 C 110.503906 52.105469 110.632812 51.964844 110.734375 51.796875 C 110.835938 51.628906 110.902344 51.445312 110.933594 51.253906 C 110.964844 51.058594 110.957031 50.867188 110.910156 50.675781 C 110.863281 50.484375 110.78125 50.308594 110.664062 50.152344 C 109.902344 49.109375 108.988281 48.222656 107.925781 47.492188 C 106.859375 46.757812 105.703125 46.222656 104.457031 45.882812 C 104.269531 45.832031 104.078125 45.816406 103.882812 45.84375 C 103.6875 45.867188 103.503906 45.929688 103.332031 46.027344 C 103.164062 46.125 103.015625 46.25 102.898438 46.40625 C 102.777344 46.5625 102.691406 46.734375 102.640625 46.925781 C 102.589844 47.113281 102.574219 47.308594 102.601562 47.5 C 102.625 47.695312 102.6875 47.878906 102.785156 48.050781 C 102.882812 48.21875 103.011719 48.367188 103.164062 48.484375 C 103.320312 48.605469 103.496094 48.691406 103.683594 48.742188 Z M 103.691406 48.742188 " fill-opacity="1" fill-rule="nonzero"/><path fill="#ffffff" d="M 79.761719 50.425781 L 87.664062 50.425781 C 87.863281 50.425781 88.050781 50.386719 88.234375 50.3125 C 88.414062 50.238281 88.574219 50.128906 88.714844 49.992188 C 88.851562 49.851562 88.960938 49.691406 89.035156 49.511719 C 89.109375 49.328125 89.148438 49.140625 89.148438 48.945312 C 89.148438 48.746094 89.109375 48.558594 89.035156 48.378906 C 88.960938 48.195312 88.851562 48.035156 88.714844 47.894531 C 88.574219 47.757812 88.414062 47.648438 88.234375 47.574219 C 88.050781 47.5 87.863281 47.460938 87.664062 47.460938 L 79.761719 47.460938 C 79.566406 47.460938 79.378906 47.5 79.195312 47.574219 C 79.015625 47.648438 78.855469 47.757812 78.714844 47.894531 C 78.578125 48.035156 78.46875 48.195312 78.394531 48.378906 C 78.320312 48.558594 78.28125 48.746094 78.28125 48.945312 C 78.28125 49.140625 78.320312 49.328125 78.394531 49.511719 C 78.46875 49.691406 78.578125 49.851562 78.714844 49.992188 C 78.855469 50.128906 79.015625 50.238281 79.195312 50.3125 C 79.378906 50.386719 79.566406 50.425781 79.761719 50.425781 Z M 79.761719 50.425781 " fill-opacity="1" fill-rule="nonzero"/><path fill="#ffffff" d="M 79.761719 57.339844 L 87.664062 57.339844 C 87.863281 57.339844 88.050781 57.304688 88.234375 57.226562 C 88.414062 57.152344 88.574219 57.046875 88.714844 56.90625 C 88.851562 56.765625 88.960938 56.605469 89.035156 56.425781 C 89.109375 56.242188 89.148438 56.054688 89.148438 55.859375 C 89.148438 55.664062 89.109375 55.472656 89.035156 55.292969 C 88.960938 55.109375 88.851562 54.949219 88.714844 54.8125 C 88.574219 54.671875 88.414062 54.566406 88.234375 54.488281 C 88.050781 54.414062 87.863281 54.375 87.664062 54.375 L 79.761719 54.375 C 79.566406 54.375 79.378906 54.414062 79.195312 54.488281 C 79.015625 54.566406 78.855469 54.671875 78.714844 54.8125 C 78.578125 54.949219 78.46875 55.109375 78.394531 55.292969 C 78.320312 55.472656 78.28125 55.664062 78.28125 55.859375 C 78.28125 56.054688 78.320312 56.242188 78.394531 56.425781 C 78.46875 56.605469 78.578125 56.765625 78.714844 56.90625 C 78.855469 57.046875 79.015625 57.152344 79.195312 57.226562 C 79.378906 57.304688 79.566406 57.339844 79.761719 57.339844 Z M 79.761719 57.339844 " fill-opacity="1" fill-rule="nonzero"/><path fill="#ffffff" d="M 79.761719 64.253906 L 87.664062 64.253906 C 87.863281 64.253906 88.050781 64.21875 88.234375 64.140625 C 88.414062 64.066406 88.574219 63.960938 88.714844 63.820312 C 88.851562 63.683594 88.960938 63.523438 89.035156 63.339844 C 89.109375 63.160156 89.148438 62.96875 89.148438 62.773438 C 89.148438 62.578125 89.109375 62.386719 89.035156 62.207031 C 88.960938 62.023438 88.851562 61.863281 88.714844 61.726562 C 88.574219 61.585938 88.414062 61.480469 88.234375 61.40625 C 88.050781 61.328125 87.863281 61.292969 87.664062 61.292969 L 79.761719 61.292969 C 79.566406 61.292969 79.378906 61.328125 79.195312 61.40625 C 79.015625 61.480469 78.855469 61.585938 78.714844 61.726562 C 78.578125 61.863281 78.46875 62.023438 78.394531 62.207031 C 78.320312 62.386719 78.28125 62.578125 78.28125 62.773438 C 78.28125 62.96875 78.320312 63.160156 78.394531 63.339844 C 78.46875 63.523438 78.578125 63.683594 78.714844 63.820312 C 78.855469 63.960938 79.015625 64.066406 79.195312 64.140625 C 79.378906 64.21875 79.566406 64.253906 79.761719 64.253906 Z M 79.761719 64.253906 " fill-opacity="1" fill-rule="nonzero"/><g clip-path="url(#b97afbc3fb)"><path fill="#ffffff" d="M 132.878906 119.464844 L 128.519531 114.527344 C 127.414062 113.277344 126.859375 111.820312 126.863281 110.148438 L 126.863281 68.699219 C 126.863281 68.503906 126.824219 68.316406 126.75 68.132812 C 126.675781 67.953125 126.566406 67.792969 126.429688 67.652344 C 126.289062 67.511719 126.128906 67.40625 125.945312 67.332031 C 125.765625 67.257812 125.578125 67.21875 125.378906 67.21875 L 115.324219 67.21875 C 115.9375 66.402344 116.476562 65.539062 116.933594 64.628906 C 117.394531 63.714844 117.773438 62.769531 118.0625 61.792969 C 118.355469 60.8125 118.5625 59.816406 118.675781 58.804688 C 118.792969 57.789062 118.816406 56.773438 118.753906 55.753906 C 118.6875 54.734375 118.535156 53.730469 118.289062 52.738281 C 118.046875 51.746094 117.71875 50.785156 117.304688 49.851562 C 116.890625 48.917969 116.398438 48.027344 115.824219 47.179688 C 115.253906 46.335938 114.613281 45.546875 113.898438 44.816406 C 113.941406 44.777344 113.984375 44.738281 114.023438 44.695312 C 114.609375 44.109375 115.109375 43.460938 115.523438 42.742188 C 115.9375 42.027344 116.253906 41.269531 116.46875 40.472656 C 116.6875 39.671875 116.796875 38.859375 116.800781 38.035156 C 116.808594 37.207031 116.707031 36.390625 116.496094 35.589844 C 116.429688 35.332031 116.300781 35.109375 116.113281 34.917969 C 115.925781 34.730469 115.699219 34.601562 115.441406 34.535156 C 114.902344 34.394531 114.359375 34.300781 113.804688 34.257812 C 113.25 34.214844 112.699219 34.21875 112.144531 34.269531 C 111.59375 34.324219 111.046875 34.421875 110.511719 34.570312 C 109.976562 34.71875 109.460938 34.914062 108.960938 35.152344 C 108.457031 35.394531 107.980469 35.675781 107.53125 35.996094 C 107.078125 36.320312 106.660156 36.679688 106.269531 37.078125 C 105.882812 37.472656 105.53125 37.902344 105.21875 38.359375 C 104.90625 38.820312 104.632812 39.300781 104.40625 39.808594 C 102.671875 39.511719 100.933594 39.484375 99.191406 39.71875 C 97.445312 39.953125 95.777344 40.445312 94.183594 41.191406 C 93.933594 40.589844 93.632812 40.015625 93.28125 39.46875 C 92.929688 38.921875 92.535156 38.40625 92.09375 37.925781 C 91.65625 37.445312 91.179688 37.007812 90.664062 36.609375 C 90.148438 36.210938 89.605469 35.859375 89.03125 35.554688 C 88.453125 35.25 87.859375 35 87.238281 34.796875 C 86.621094 34.59375 85.988281 34.445312 85.347656 34.351562 C 84.703125 34.261719 84.054688 34.222656 83.40625 34.238281 C 82.753906 34.257812 82.109375 34.332031 81.472656 34.457031 C 80.835938 34.585938 80.210938 34.769531 79.605469 35.003906 C 79 35.238281 78.417969 35.523438 77.859375 35.859375 C 77.300781 36.195312 76.777344 36.578125 76.285156 37.003906 C 75.792969 37.425781 75.339844 37.890625 74.929688 38.394531 C 74.515625 38.898438 74.148438 39.433594 73.828125 40 C 73.507812 40.566406 73.238281 41.15625 73.019531 41.769531 C 72.800781 42.378906 72.632812 43.007812 72.523438 43.648438 C 72.410156 44.289062 72.355469 44.933594 72.355469 45.585938 L 72.355469 56.496094 L 69.390625 52.050781 L 69.390625 43.117188 L 69.886719 43.117188 C 70.082031 43.117188 70.269531 43.078125 70.453125 43.003906 C 70.632812 42.929688 70.792969 42.820312 70.933594 42.683594 C 71.070312 42.542969 71.179688 42.382812 71.253906 42.203125 C 71.328125 42.019531 71.367188 41.832031 71.367188 41.632812 L 71.367188 38.671875 C 71.367188 38.378906 71.339844 38.089844 71.28125 37.804688 C 71.222656 37.519531 71.140625 37.238281 71.027344 36.96875 C 70.914062 36.699219 70.777344 36.445312 70.617188 36.203125 C 70.453125 35.960938 70.269531 35.734375 70.0625 35.527344 C 69.859375 35.324219 69.632812 35.136719 69.390625 34.976562 C 69.148438 34.8125 68.890625 34.675781 68.621094 34.566406 C 68.351562 34.453125 68.074219 34.367188 67.789062 34.3125 C 67.503906 34.253906 67.214844 34.226562 66.921875 34.226562 L 59.019531 34.226562 C 58.726562 34.226562 58.4375 34.253906 58.152344 34.3125 C 57.867188 34.367188 57.589844 34.453125 57.320312 34.566406 C 57.050781 34.675781 56.792969 34.8125 56.550781 34.976562 C 56.308594 35.136719 56.082031 35.324219 55.878906 35.527344 C 55.671875 35.734375 55.488281 35.960938 55.324219 36.203125 C 55.164062 36.445312 55.027344 36.699219 54.914062 36.96875 C 54.800781 37.238281 54.71875 37.519531 54.660156 37.804688 C 54.601562 38.089844 54.574219 38.378906 54.574219 38.671875 L 54.574219 41.632812 C 54.574219 41.832031 54.613281 42.019531 54.6875 42.203125 C 54.761719 42.382812 54.871094 42.542969 55.007812 42.683594 C 55.148438 42.820312 55.308594 42.929688 55.488281 43.003906 C 55.671875 43.078125 55.859375 43.117188 56.054688 43.117188 L 56.550781 43.117188 L 56.550781 52.050781 L 50.871094 60.570312 C 50.707031 60.816406 50.625 61.089844 50.625 61.390625 L 50.625 67.21875 L 44.023438 67.21875 C 43.828125 67.21875 43.640625 67.257812 43.457031 67.332031 C 43.277344 67.40625 43.117188 67.511719 42.976562 67.652344 C 42.839844 67.792969 42.730469 67.953125 42.65625 68.132812 C 42.582031 68.316406 42.542969 68.503906 42.542969 68.699219 L 42.542969 110.15625 C 42.542969 111.824219 41.992188 113.28125 40.886719 114.53125 L 36.527344 119.472656 C 35.917969 120.160156 35.417969 120.925781 35.027344 121.757812 C 34.640625 122.59375 34.375 123.464844 34.238281 124.375 C 34.101562 125.289062 34.097656 126.199219 34.222656 127.109375 C 34.347656 128.023438 34.597656 128.898438 34.976562 129.738281 C 35.355469 130.578125 35.847656 131.347656 36.445312 132.046875 C 37.046875 132.746094 37.734375 133.34375 38.507812 133.84375 C 39.28125 134.34375 40.109375 134.722656 40.992188 134.984375 C 41.875 135.246094 42.777344 135.375 43.699219 135.375 L 125.707031 135.375 C 126.628906 135.375 127.53125 135.246094 128.414062 134.984375 C 129.296875 134.726562 130.128906 134.34375 130.902344 133.84375 C 131.675781 133.34375 132.363281 132.746094 132.964844 132.046875 C 133.5625 131.347656 134.054688 130.578125 134.433594 129.738281 C 134.8125 128.898438 135.0625 128.019531 135.1875 127.109375 C 135.3125 126.195312 135.308594 125.285156 135.171875 124.371094 C 135.03125 123.460938 134.769531 122.589844 134.378906 121.753906 C 133.988281 120.917969 133.488281 120.15625 132.878906 119.464844 Z M 108.429688 39.109375 C 109.136719 38.40625 109.957031 37.886719 110.898438 37.558594 C 111.839844 37.230469 112.808594 37.121094 113.800781 37.234375 C 113.910156 38.222656 113.800781 39.191406 113.472656 40.132812 C 113.144531 41.074219 112.628906 41.898438 111.921875 42.601562 C 111.835938 42.691406 111.742188 42.777344 111.644531 42.863281 C 110.316406 41.894531 108.878906 41.132812 107.332031 40.574219 C 107.628906 40.035156 107.996094 39.546875 108.429688 39.109375 Z M 101.496094 42.523438 C 102.207031 42.523438 102.914062 42.574219 103.617188 42.679688 C 104.324219 42.785156 105.015625 42.941406 105.695312 43.152344 C 106.375 43.359375 107.039062 43.617188 107.679688 43.925781 C 108.324219 44.230469 108.9375 44.585938 109.527344 44.984375 C 110.117188 45.382812 110.675781 45.824219 111.199219 46.304688 C 111.722656 46.789062 112.207031 47.304688 112.652344 47.859375 C 113.097656 48.414062 113.503906 49 113.863281 49.613281 C 114.222656 50.230469 114.53125 50.867188 114.796875 51.527344 C 115.0625 52.1875 115.273438 52.867188 115.4375 53.558594 C 115.601562 54.25 115.710938 54.953125 115.769531 55.660156 C 115.828125 56.371094 115.832031 57.082031 115.785156 57.792969 C 115.738281 58.5 115.640625 59.203125 115.488281 59.898438 C 115.335938 60.59375 115.132812 61.277344 114.878906 61.941406 C 114.625 62.605469 114.324219 63.25 113.972656 63.867188 C 113.625 64.488281 113.230469 65.078125 112.792969 65.640625 C 112.355469 66.203125 111.878906 66.726562 111.359375 67.21875 L 95.074219 67.21875 L 95.074219 45.585938 C 95.074219 45.085938 95.039062 44.585938 94.972656 44.09375 C 97.019531 43.042969 99.195312 42.523438 101.496094 42.523438 Z M 83.714844 37.1875 C 84.265625 37.191406 84.8125 37.242188 85.351562 37.351562 C 85.890625 37.460938 86.417969 37.621094 86.925781 37.832031 C 87.433594 38.042969 87.917969 38.300781 88.378906 38.605469 C 88.835938 38.914062 89.257812 39.261719 89.648438 39.652344 C 90.039062 40.039062 90.386719 40.464844 90.691406 40.921875 C 91 41.382812 91.257812 41.863281 91.46875 42.375 C 91.679688 42.882812 91.839844 43.40625 91.949219 43.949219 C 92.054688 44.488281 92.109375 45.035156 92.109375 45.585938 L 92.109375 67.21875 L 75.316406 67.21875 L 75.316406 45.585938 C 75.320312 45.035156 75.375 44.488281 75.480469 43.949219 C 75.589844 43.40625 75.75 42.882812 75.960938 42.375 C 76.171875 41.863281 76.429688 41.382812 76.738281 40.921875 C 77.042969 40.464844 77.390625 40.039062 77.78125 39.652344 C 78.171875 39.261719 78.59375 38.914062 79.050781 38.605469 C 79.511719 38.300781 79.992188 38.042969 80.503906 37.832031 C 81.011719 37.621094 81.535156 37.460938 82.078125 37.351562 C 82.617188 37.242188 83.164062 37.191406 83.714844 37.1875 Z M 57.539062 38.671875 C 57.539062 38.472656 57.574219 38.285156 57.652344 38.105469 C 57.726562 37.921875 57.832031 37.761719 57.972656 37.625 C 58.109375 37.484375 58.269531 37.378906 58.453125 37.300781 C 58.632812 37.226562 58.824219 37.1875 59.019531 37.1875 L 66.921875 37.1875 C 67.117188 37.1875 67.308594 37.226562 67.488281 37.300781 C 67.671875 37.378906 67.832031 37.484375 67.96875 37.625 C 68.109375 37.761719 68.214844 37.921875 68.289062 38.105469 C 68.367188 38.285156 68.402344 38.472656 68.402344 38.671875 L 68.402344 40.152344 L 57.539062 40.152344 Z M 53.585938 61.839844 L 59.265625 53.320312 C 59.429688 53.074219 59.511719 52.800781 59.511719 52.5 L 59.511719 43.117188 L 66.429688 43.117188 L 66.429688 52.5 C 66.429688 52.800781 66.511719 53.074219 66.675781 53.320312 L 72.355469 61.839844 L 72.355469 67.21875 L 53.585938 67.21875 Z M 45.507812 70.183594 L 123.898438 70.183594 L 123.898438 110.15625 C 123.898438 111.003906 124.011719 111.839844 124.230469 112.65625 L 45.171875 112.65625 C 45.394531 111.839844 45.507812 111.003906 45.507812 110.15625 Z M 125.714844 132.414062 L 43.699219 132.414062 C 43.0625 132.414062 42.4375 132.324219 41.828125 132.144531 C 41.21875 131.964844 40.644531 131.699219 40.113281 131.355469 C 39.578125 131.011719 39.101562 130.597656 38.6875 130.113281 C 38.273438 129.632812 37.933594 129.101562 37.671875 128.519531 C 37.410156 127.941406 37.238281 127.335938 37.152344 126.703125 C 37.066406 126.074219 37.070312 125.445312 37.164062 124.816406 C 37.257812 124.1875 37.441406 123.582031 37.710938 123.007812 C 37.980469 122.429688 38.328125 121.902344 38.746094 121.425781 L 43.105469 116.488281 C 43.351562 116.210938 43.578125 115.921875 43.789062 115.621094 L 125.617188 115.621094 C 125.824219 115.925781 126.054688 116.21875 126.296875 116.496094 L 130.65625 121.433594 C 131.078125 121.910156 131.421875 122.4375 131.691406 123.015625 C 131.957031 123.589844 132.140625 124.191406 132.234375 124.820312 C 132.328125 125.449219 132.332031 126.078125 132.246094 126.707031 C 132.160156 127.335938 131.984375 127.941406 131.722656 128.523438 C 131.460938 129.101562 131.125 129.632812 130.710938 130.113281 C 130.296875 130.59375 129.820312 131.007812 129.289062 131.355469 C 128.753906 131.699219 128.183594 131.960938 127.574219 132.140625 C 126.964844 132.324219 126.339844 132.414062 125.707031 132.414062 Z M 125.714844 132.414062 " fill-opacity="1" fill-rule="nonzero"/></g><path fill="#ffffff" d="M 71.859375 91.222656 L 97.542969 91.222656 C 97.964844 91.222656 98.382812 91.179688 98.796875 91.097656 C 99.210938 91.015625 99.613281 90.894531 100 90.734375 C 100.390625 90.570312 100.761719 90.375 101.109375 90.140625 C 101.460938 89.90625 101.785156 89.640625 102.085938 89.339844 C 102.382812 89.042969 102.648438 88.71875 102.882812 88.367188 C 103.117188 88.019531 103.316406 87.648438 103.476562 87.257812 C 103.636719 86.867188 103.757812 86.46875 103.839844 86.054688 C 103.921875 85.640625 103.964844 85.222656 103.964844 84.800781 C 103.964844 84.378906 103.921875 83.960938 103.839844 83.546875 C 103.757812 83.136719 103.636719 82.734375 103.476562 82.34375 C 103.316406 81.953125 103.117188 81.585938 102.882812 81.234375 C 102.648438 80.882812 102.382812 80.558594 102.085938 80.261719 C 101.785156 79.964844 101.460938 79.695312 101.109375 79.460938 C 100.761719 79.226562 100.390625 79.03125 100 78.871094 C 99.613281 78.707031 99.210938 78.585938 98.796875 78.503906 C 98.382812 78.421875 97.964844 78.378906 97.542969 78.378906 L 71.859375 78.378906 C 71.4375 78.378906 71.023438 78.421875 70.609375 78.503906 C 70.195312 78.585938 69.792969 78.707031 69.402344 78.871094 C 69.015625 79.03125 68.644531 79.226562 68.292969 79.460938 C 67.941406 79.695312 67.617188 79.964844 67.320312 80.261719 C 67.023438 80.558594 66.757812 80.882812 66.523438 81.234375 C 66.289062 81.585938 66.089844 81.953125 65.929688 82.34375 C 65.769531 82.734375 65.644531 83.136719 65.5625 83.546875 C 65.480469 83.960938 65.441406 84.378906 65.441406 84.800781 C 65.441406 85.222656 65.480469 85.640625 65.5625 86.054688 C 65.644531 86.46875 65.769531 86.867188 65.929688 87.257812 C 66.089844 87.648438 66.289062 88.019531 66.523438 88.367188 C 66.757812 88.71875 67.023438 89.042969 67.320312 89.339844 C 67.617188 89.640625 67.941406 89.90625 68.292969 90.140625 C 68.644531 90.375 69.015625 90.570312 69.402344 90.734375 C 69.792969 90.894531 70.195312 91.015625 70.609375 91.097656 C 71.023438 91.179688 71.4375 91.222656 71.859375 91.222656 Z M 71.859375 81.34375 L 97.542969 81.34375 C 98.003906 81.34375 98.445312 81.433594 98.867188 81.605469 C 99.289062 81.78125 99.664062 82.03125 99.988281 82.355469 C 100.3125 82.679688 100.5625 83.054688 100.738281 83.476562 C 100.914062 83.902344 101 84.34375 101 84.800781 C 101 85.257812 100.914062 85.699219 100.738281 86.125 C 100.5625 86.546875 100.3125 86.921875 99.988281 87.246094 C 99.664062 87.570312 99.289062 87.820312 98.867188 87.996094 C 98.445312 88.171875 98.003906 88.257812 97.542969 88.257812 L 71.859375 88.257812 C 71.402344 88.257812 70.960938 88.171875 70.539062 87.996094 C 70.113281 87.820312 69.742188 87.570312 69.417969 87.246094 C 69.09375 86.921875 68.84375 86.546875 68.667969 86.125 C 68.492188 85.699219 68.402344 85.257812 68.402344 84.800781 C 68.402344 84.34375 68.492188 83.902344 68.667969 83.476562 C 68.84375 83.054688 69.09375 82.679688 69.417969 82.355469 C 69.742188 82.03125 70.113281 81.78125 70.539062 81.605469 C 70.960938 81.433594 71.402344 81.34375 71.859375 81.34375 Z M 71.859375 81.34375 " fill-opacity="1" fill-rule="nonzero"/></svg>