<svg xmlns="http://www.w3.org/2000/svg" xmlns:xlink="http://www.w3.org/1999/xlink" width="226" zoomAndPan="magnify" viewBox="0 0 169.92 170.249993" height="226" preserveAspectRatio="xMidYMid meet" version="1.0"><defs><clipPath id="612a020c3a"><path d="M 0.332031 0 L 169.09375 0 L 169.09375 168.761719 L 0.332031 168.761719 Z M 0.332031 0 " clip-rule="nonzero"/></clipPath><clipPath id="4aace15b9e"><path d="M 84.714844 0 C 38.109375 0 0.332031 37.777344 0.332031 84.378906 C 0.332031 130.984375 38.109375 168.761719 84.714844 168.761719 C 131.316406 168.761719 169.09375 130.984375 169.09375 84.378906 C 169.09375 37.777344 131.316406 0 84.714844 0 Z M 84.714844 0 " clip-rule="nonzero"/></clipPath><clipPath id="450472dab0"><path d="M 30.160156 36.328125 L 139.558594 36.328125 L 139.558594 107 L 30.160156 107 Z M 30.160156 36.328125 " clip-rule="nonzero"/></clipPath><clipPath id="5b8b026e35"><path d="M 62 119 L 107 119 L 107 132.332031 L 62 132.332031 Z M 62 119 " clip-rule="nonzero"/></clipPath><clipPath id="10b2425658"><path d="M 30.160156 89 L 139.558594 89 L 139.558594 93 L 30.160156 93 Z M 30.160156 89 " clip-rule="nonzero"/></clipPath><clipPath id="f60019aacc"><path d="M 66.03125 50.167969 L 103.238281 50.167969 L 103.238281 79.191406 L 66.03125 79.191406 Z M 66.03125 50.167969 " clip-rule="nonzero"/></clipPath></defs><g clip-path="url(#612a020c3a)"><g clip-path="url(#4aace15b9e)"><path fill="#addeeb" d="M 0.332031 0 L 169.09375 0 L 169.09375 168.761719 L 0.332031 168.761719 Z M 0.332031 0 " fill-opacity="1" fill-rule="nonzero"/></g></g><g clip-path="url(#450472dab0)"><path fill="#ffffff" d="M 131.667969 106.796875 L 37.75 106.796875 C 33.59375 106.796875 30.210938 103.417969 30.210938 99.261719 L 30.210938 43.867188 C 30.210938 39.710938 33.59375 36.328125 37.75 36.328125 L 131.667969 36.328125 C 135.824219 36.328125 139.207031 39.710938 139.207031 43.867188 L 139.207031 99.261719 C 139.207031 103.417969 135.824219 106.796875 131.667969 106.796875 Z M 37.75 38.882812 C 35 38.882812 32.765625 41.121094 32.765625 43.867188 L 32.765625 99.261719 C 32.765625 102.007812 35 104.246094 37.75 104.246094 L 131.667969 104.246094 C 134.417969 104.246094 136.652344 102.007812 136.652344 99.261719 L 136.652344 43.867188 C 136.652344 41.121094 134.417969 38.882812 131.667969 38.882812 Z M 37.75 38.882812 " fill-opacity="1" fill-rule="evenodd"/></g><path fill="#ffffff" d="M 94.785156 121.699219 L 74.632812 121.699219 C 73.925781 121.699219 73.351562 121.128906 73.351562 120.421875 L 73.351562 105.523438 C 73.351562 104.816406 73.925781 104.246094 74.632812 104.246094 L 94.785156 104.246094 C 95.492188 104.246094 96.066406 104.816406 96.066406 105.523438 L 96.066406 120.421875 C 96.066406 121.128906 95.492188 121.699219 94.785156 121.699219 Z M 75.910156 119.148438 L 93.507812 119.148438 L 93.507812 106.796875 L 75.910156 106.796875 Z M 75.910156 119.148438 " fill-opacity="1" fill-rule="evenodd"/><g clip-path="url(#5b8b026e35)"><path fill="#ffffff" d="M 105.296875 132.421875 L 64.21875 132.421875 C 63.460938 132.421875 62.84375 131.808594 62.84375 131.050781 C 62.84375 124.484375 68.183594 119.148438 74.746094 119.148438 L 94.65625 119.148438 C 101.226562 119.148438 106.574219 124.496094 106.574219 131.066406 L 106.574219 131.148438 C 106.574219 131.851562 106.003906 132.421875 105.296875 132.421875 Z M 65.472656 129.871094 L 103.945312 129.871094 C 103.355469 125.265625 99.414062 121.699219 94.65625 121.699219 L 74.746094 121.699219 C 69.988281 121.699219 66.050781 125.269531 65.472656 129.871094 Z M 65.472656 129.871094 " fill-opacity="1" fill-rule="evenodd"/></g><g clip-path="url(#10b2425658)"><path fill="#ffffff" d="M 137.929688 92.011719 L 31.488281 92.011719 C 30.78125 92.011719 30.210938 91.4375 30.210938 90.734375 C 30.210938 90.027344 30.78125 89.457031 31.488281 89.457031 L 137.929688 89.457031 C 138.636719 89.457031 139.207031 90.027344 139.207031 90.734375 C 139.207031 91.4375 138.636719 92.011719 137.929688 92.011719 Z M 137.929688 92.011719 " fill-opacity="1" fill-rule="evenodd"/></g><path fill="#ffffff" d="M 89.730469 99.40625 L 79.6875 99.40625 C 78.980469 99.40625 78.410156 98.832031 78.410156 98.128906 C 78.410156 97.421875 78.980469 96.851562 79.6875 96.851562 L 89.730469 96.851562 C 90.4375 96.851562 91.007812 97.421875 91.007812 98.128906 C 91.007812 98.832031 90.4375 99.40625 89.730469 99.40625 Z M 89.730469 99.40625 " fill-opacity="1" fill-rule="evenodd"/><g clip-path="url(#f60019aacc)"><path fill="#ffffff" d="M 101.417969 60.703125 C 100.917969 60.703125 100.488281 60.527344 100.136719 60.171875 C 91.636719 51.671875 77.8125 51.671875 69.316406 60.171875 C 69.144531 60.339844 68.949219 60.46875 68.726562 60.558594 C 68.503906 60.652344 68.273438 60.695312 68.03125 60.695312 C 67.792969 60.695312 67.5625 60.648438 67.339844 60.554688 C 67.121094 60.464844 66.921875 60.332031 66.753906 60.164062 C 66.585938 59.992188 66.453125 59.796875 66.363281 59.578125 C 66.269531 59.355469 66.222656 59.125 66.222656 58.882812 C 66.222656 58.644531 66.265625 58.414062 66.355469 58.191406 C 66.449219 57.96875 66.578125 57.773438 66.746094 57.601562 C 71.546875 52.808594 77.925781 50.167969 84.726562 50.167969 C 91.523438 50.167969 97.910156 52.808594 102.703125 57.601562 C 102.964844 57.863281 103.128906 58.171875 103.199219 58.53125 C 103.273438 58.890625 103.238281 59.242188 103.097656 59.582031 C 102.957031 59.921875 102.734375 60.191406 102.429688 60.394531 C 102.121094 60.601562 101.785156 60.703125 101.417969 60.703125 Z M 97.570312 65.308594 C 97.738281 65.136719 97.871094 64.941406 97.964844 64.71875 C 98.054688 64.496094 98.101562 64.261719 98.101562 64.023438 C 98.101562 63.78125 98.054688 63.550781 97.964844 63.328125 C 97.871094 63.105469 97.738281 62.910156 97.570312 62.738281 C 90.488281 55.65625 78.96875 55.65625 71.886719 62.738281 C 71.71875 62.910156 71.585938 63.105469 71.496094 63.328125 C 71.40625 63.550781 71.359375 63.78125 71.363281 64.019531 C 71.363281 64.261719 71.410156 64.492188 71.5 64.710938 C 71.59375 64.933594 71.722656 65.128906 71.894531 65.300781 C 72.0625 65.46875 72.257812 65.601562 72.480469 65.691406 C 72.703125 65.785156 72.933594 65.832031 73.171875 65.832031 C 73.410156 65.832031 73.644531 65.785156 73.863281 65.695312 C 74.085938 65.605469 74.285156 65.476562 74.453125 65.308594 C 80.117188 59.640625 89.335938 59.640625 95 65.308594 C 95.171875 65.476562 95.367188 65.609375 95.589844 65.699219 C 95.8125 65.792969 96.042969 65.839844 96.285156 65.839844 C 96.527344 65.839844 96.757812 65.792969 96.980469 65.699219 C 97.203125 65.609375 97.398438 65.476562 97.570312 65.308594 Z M 92.433594 70.445312 C 92.601562 70.273438 92.734375 70.078125 92.824219 69.855469 C 92.917969 69.632812 92.964844 69.402344 92.964844 69.160156 C 92.964844 68.917969 92.917969 68.6875 92.824219 68.464844 C 92.734375 68.242188 92.601562 68.046875 92.433594 67.875 C 88.183594 63.628906 81.269531 63.628906 77.023438 67.875 C 76.855469 68.046875 76.730469 68.242188 76.640625 68.464844 C 76.554688 68.683594 76.511719 68.914062 76.511719 69.152344 C 76.515625 69.390625 76.5625 69.621094 76.65625 69.839844 C 76.746094 70.058594 76.878906 70.253906 77.046875 70.421875 C 77.214844 70.589844 77.40625 70.71875 77.625 70.8125 C 77.847656 70.902344 78.074219 70.949219 78.3125 70.953125 C 78.550781 70.953125 78.78125 70.910156 79 70.824219 C 79.222656 70.734375 79.417969 70.609375 79.589844 70.445312 C 79.929688 70.105469 80.296875 69.808594 80.691406 69.542969 C 81.089844 69.277344 81.507812 69.054688 81.949219 68.871094 C 82.386719 68.691406 82.84375 68.550781 83.308594 68.460938 C 83.777344 68.367188 84.25 68.320312 84.726562 68.320312 C 85.203125 68.320312 85.675781 68.367188 86.144531 68.460938 C 86.613281 68.550781 87.066406 68.691406 87.507812 68.871094 C 87.949219 69.054688 88.367188 69.277344 88.761719 69.542969 C 89.160156 69.808594 89.527344 70.105469 89.863281 70.445312 C 90.035156 70.613281 90.230469 70.746094 90.453125 70.835938 C 90.675781 70.929688 90.90625 70.976562 91.148438 70.976562 C 91.390625 70.976562 91.621094 70.929688 91.84375 70.835938 C 92.066406 70.746094 92.261719 70.613281 92.433594 70.445312 Z M 87.292969 78.148438 C 87.492188 77.953125 87.664062 77.734375 87.8125 77.5 C 87.957031 77.261719 88.078125 77.011719 88.167969 76.746094 C 88.257812 76.484375 88.316406 76.210938 88.34375 75.933594 C 88.371094 75.65625 88.367188 75.378906 88.332031 75.101562 C 88.292969 74.828125 88.226562 74.558594 88.128906 74.296875 C 88.03125 74.035156 87.90625 73.789062 87.75 73.558594 C 87.59375 73.324219 87.414062 73.113281 87.210938 72.921875 C 87.007812 72.730469 86.785156 72.566406 86.546875 72.425781 C 86.304688 72.289062 86.050781 72.175781 85.78125 72.097656 C 85.515625 72.015625 85.242188 71.964844 84.964844 71.945312 C 84.6875 71.929688 84.410156 71.941406 84.132812 71.988281 C 83.859375 72.03125 83.59375 72.109375 83.335938 72.214844 C 83.078125 72.320312 82.835938 72.457031 82.609375 72.617188 C 82.382812 72.78125 82.175781 72.96875 81.992188 73.175781 C 81.808594 73.386719 81.648438 73.613281 81.519531 73.859375 C 81.386719 74.105469 81.285156 74.363281 81.214844 74.632812 C 81.140625 74.902344 81.101562 75.175781 81.089844 75.457031 C 81.082031 75.734375 81.105469 76.011719 81.160156 76.285156 C 81.214844 76.558594 81.296875 76.820312 81.414062 77.074219 C 81.527344 77.328125 81.671875 77.566406 81.839844 77.789062 C 82.007812 78.007812 82.203125 78.207031 82.417969 78.386719 C 82.632812 78.5625 82.867188 78.714844 83.117188 78.835938 C 83.367188 78.960938 83.628906 79.054688 83.898438 79.117188 C 84.171875 79.179688 84.445312 79.210938 84.726562 79.210938 C 85.726562 79.210938 86.585938 78.855469 87.292969 78.148438 Z M 87.292969 78.148438 " fill-opacity="1" fill-rule="nonzero"/></g></svg>