<svg xmlns="http://www.w3.org/2000/svg" xmlns:xlink="http://www.w3.org/1999/xlink" width="226" zoomAndPan="magnify" viewBox="0 0 169.92 170.249993" height="226" preserveAspectRatio="xMidYMid meet" version="1.0"><defs><clipPath id="b5e123a3a2"><path d="M 0.332031 0 L 169.09375 0 L 169.09375 168.761719 L 0.332031 168.761719 Z M 0.332031 0 " clip-rule="nonzero"/></clipPath><clipPath id="f8d1484cf4"><path d="M 84.714844 0 C 38.109375 0 0.332031 37.777344 0.332031 84.378906 C 0.332031 130.984375 38.109375 168.761719 84.714844 168.761719 C 131.316406 168.761719 169.09375 130.984375 169.09375 84.378906 C 169.09375 37.777344 131.316406 0 84.714844 0 Z M 84.714844 0 " clip-rule="nonzero"/></clipPath><clipPath id="70452e85aa"><path d="M 38.972656 105 L 130.449219 105 L 130.449219 134.582031 L 38.972656 134.582031 Z M 38.972656 105 " clip-rule="nonzero"/></clipPath><clipPath id="a90cb3b2be"><path d="M 55 34.113281 L 73 34.113281 L 73 52 L 55 52 Z M 55 34.113281 " clip-rule="nonzero"/></clipPath></defs><g clip-path="url(#b5e123a3a2)"><g clip-path="url(#f8d1484cf4)"><path fill="#6791b1" d="M 0.332031 0 L 169.09375 0 L 169.09375 168.761719 L 0.332031 168.761719 Z M 0.332031 0 " fill-opacity="1" fill-rule="nonzero"/></g></g><g clip-path="url(#70452e85aa)"><path fill="#ffffff" d="M 115.792969 105.304688 L 53.628906 105.304688 C 49.625 105.304688 45.917969 106.953125 43.269531 109.601562 C 40.621094 112.25 38.972656 115.957031 38.972656 119.960938 C 38.972656 124.023438 40.621094 127.671875 43.269531 130.320312 C 45.917969 132.96875 49.625 134.617188 53.628906 134.617188 L 115.792969 134.617188 C 119.851562 134.617188 123.503906 132.96875 126.152344 130.320312 C 128.800781 127.671875 130.449219 124.023438 130.449219 119.960938 C 130.449219 115.957031 128.800781 112.25 126.152344 109.601562 C 123.503906 106.953125 119.851562 105.304688 115.792969 105.304688 Z M 53.628906 109.246094 L 115.792969 109.246094 C 118.792969 109.246094 121.441406 110.425781 123.386719 112.367188 C 125.328125 114.308594 126.5625 117.019531 126.5625 119.960938 C 126.5625 122.902344 125.328125 125.613281 123.386719 127.554688 C 121.441406 129.496094 118.792969 130.675781 115.792969 130.675781 L 53.628906 130.675781 C 50.6875 130.675781 47.976562 129.496094 46.035156 127.554688 C 44.09375 125.613281 42.914062 122.902344 42.914062 119.960938 C 42.914062 117.019531 44.09375 114.308594 46.035156 112.367188 C 47.976562 110.425781 50.6875 109.246094 53.628906 109.246094 Z M 53.628906 109.246094 " fill-opacity="1" fill-rule="nonzero"/></g><path fill="#ffffff" d="M 58.515625 48.261719 L 56.453125 107.1875 C 56.394531 108.304688 57.277344 109.1875 58.339844 109.246094 L 68.992188 109.246094 C 70.050781 109.246094 70.933594 108.363281 70.933594 107.246094 C 70.933594 107.1875 70.933594 107.128906 70.933594 107.011719 L 68.816406 48.144531 L 66.875 48.203125 L 68.875 48.144531 C 68.816406 47.027344 67.875 46.203125 66.816406 46.261719 C 66.460938 46.261719 66.109375 46.378906 65.8125 46.554688 C 65.519531 46.730469 65.167969 46.851562 64.871094 46.910156 C 64.519531 47.027344 64.105469 47.085938 63.695312 47.085938 C 63.28125 47.085938 62.871094 47.027344 62.519531 46.910156 C 62.164062 46.851562 61.8125 46.671875 61.457031 46.496094 C 60.515625 45.96875 59.339844 46.261719 58.808594 47.203125 C 58.632812 47.554688 58.515625 47.910156 58.515625 48.261719 Z M 60.457031 105.304688 L 62.339844 50.910156 C 62.8125 50.96875 63.222656 51.027344 63.695312 51.027344 C 64.164062 51.027344 64.578125 50.96875 65.050781 50.910156 L 66.933594 105.304688 Z M 60.457031 105.304688 " fill-opacity="1" fill-rule="nonzero"/><g clip-path="url(#a90cb3b2be)"><path fill="#ffffff" d="M 63.695312 34.136719 C 61.339844 34.136719 59.28125 35.078125 57.75 36.605469 C 56.21875 38.136719 55.277344 40.257812 55.277344 42.550781 C 55.277344 44.90625 56.21875 47.027344 57.75 48.558594 C 59.28125 50.085938 61.339844 51.027344 63.695312 51.027344 C 65.992188 51.027344 68.109375 50.085938 69.640625 48.558594 C 71.171875 47.027344 72.113281 44.90625 72.113281 42.550781 C 72.113281 40.257812 71.171875 38.136719 69.640625 36.605469 C 68.109375 35.078125 65.992188 34.136719 63.695312 34.136719 Z M 60.515625 39.375 C 61.339844 38.609375 62.457031 38.078125 63.695312 38.078125 C 64.929688 38.078125 66.050781 38.609375 66.875 39.375 C 67.699219 40.199219 68.167969 41.316406 68.167969 42.550781 C 68.167969 43.847656 67.699219 44.964844 66.875 45.789062 C 66.050781 46.554688 64.929688 47.085938 63.695312 47.085938 C 62.457031 47.085938 61.339844 46.554688 60.515625 45.789062 C 59.691406 44.964844 59.222656 43.847656 59.222656 42.550781 C 59.222656 41.316406 59.691406 40.199219 60.515625 39.375 Z M 60.515625 39.375 " fill-opacity="1" fill-rule="nonzero"/></g><path fill="#ffffff" d="M 98.835938 37.609375 L 69.40625 37.609375 C 68.34375 37.609375 67.460938 38.492188 67.460938 39.550781 C 67.460938 39.960938 67.582031 40.316406 67.757812 40.609375 C 67.875 40.84375 67.992188 41.199219 68.050781 41.492188 C 68.167969 41.847656 68.167969 42.199219 68.167969 42.550781 C 68.167969 42.964844 68.167969 43.316406 68.050781 43.671875 C 67.992188 44.023438 67.875 44.378906 67.699219 44.671875 C 67.167969 45.613281 67.519531 46.789062 68.523438 47.320312 C 68.816406 47.496094 69.109375 47.554688 69.40625 47.554688 L 98.898438 47.554688 C 99.957031 47.554688 100.839844 46.671875 100.839844 45.613281 C 100.839844 44.730469 100.308594 44.023438 99.601562 43.789062 C 99.367188 43.671875 99.191406 43.496094 99.074219 43.316406 C 98.957031 43.082031 98.898438 42.847656 98.898438 42.550781 C 98.898438 42.316406 98.957031 42.082031 99.074219 41.847656 C 99.191406 41.667969 99.425781 41.492188 99.660156 41.375 L 98.898438 39.550781 L 99.660156 41.375 C 100.664062 40.90625 101.074219 39.785156 100.664062 38.785156 C 100.308594 38.019531 99.601562 37.609375 98.835938 37.609375 Z M 72.054688 41.550781 L 95.070312 41.550781 C 95.011719 41.847656 94.953125 42.199219 94.953125 42.550781 C 94.953125 42.964844 95.011719 43.257812 95.070312 43.613281 L 72.054688 43.613281 C 72.113281 43.257812 72.113281 42.90625 72.113281 42.550781 C 72.113281 42.199219 72.113281 41.90625 72.054688 41.550781 Z M 72.054688 41.550781 " fill-opacity="1" fill-rule="nonzero"/><path fill="#ffffff" d="M 100.191406 37.3125 C 98.777344 37.3125 97.425781 37.902344 96.484375 38.84375 L 96.425781 38.902344 C 95.542969 39.84375 94.953125 41.140625 94.953125 42.550781 C 94.953125 44.023438 95.542969 45.320312 96.484375 46.320312 C 96.542969 46.320312 96.601562 46.378906 96.601562 46.4375 C 97.542969 47.320312 98.835938 47.851562 100.191406 47.851562 C 101.664062 47.851562 102.957031 47.261719 103.898438 46.320312 C 103.960938 46.261719 104.019531 46.203125 104.019531 46.144531 C 104.902344 45.203125 105.429688 43.964844 105.429688 42.550781 C 105.429688 41.140625 104.84375 39.84375 103.898438 38.84375 C 102.957031 37.902344 101.664062 37.3125 100.191406 37.3125 Z M 97.894531 40.257812 L 99.25 41.609375 C 99.484375 41.375 99.839844 41.257812 100.191406 41.257812 C 100.546875 41.257812 100.898438 41.375 101.132812 41.667969 C 101.367188 41.90625 101.546875 42.199219 101.546875 42.550781 C 101.546875 42.90625 101.367188 43.199219 101.191406 43.4375 C 101.191406 43.496094 101.132812 43.496094 101.132812 43.496094 C 100.898438 43.730469 100.546875 43.90625 100.191406 43.90625 C 99.839844 43.90625 99.542969 43.789062 99.308594 43.613281 C 99.308594 43.554688 99.308594 43.554688 99.25 43.496094 C 99.015625 43.257812 98.898438 42.964844 98.898438 42.550781 C 98.898438 42.199219 99.015625 41.90625 99.25 41.667969 Z M 97.894531 40.257812 " fill-opacity="1" fill-rule="nonzero"/><path fill="#ffffff" d="M 98.25 45.789062 C 98.25 44.730469 99.132812 43.847656 100.191406 43.847656 C 101.25 43.847656 102.132812 44.730469 102.132812 45.789062 L 102.132812 55.972656 C 102.132812 57.035156 101.25 57.917969 100.191406 57.917969 C 99.132812 57.917969 98.25 57.035156 98.25 55.972656 Z M 98.25 45.789062 " fill-opacity="1" fill-rule="nonzero"/><path fill="#ffffff" d="M 106.609375 65.921875 C 106.195312 66.921875 105.078125 67.394531 104.078125 67.039062 C 103.074219 66.628906 102.546875 65.511719 102.957031 64.507812 L 105.546875 57.917969 L 94.835938 57.917969 L 97.425781 64.507812 C 97.835938 65.511719 97.308594 66.628906 96.304688 67.039062 C 95.304688 67.394531 94.1875 66.921875 93.777344 65.921875 L 90.125 56.738281 C 90.066406 56.503906 90.007812 56.210938 90.007812 55.972656 C 90.007812 54.855469 90.890625 53.972656 91.949219 53.972656 L 108.433594 53.972656 C 108.667969 53.972656 108.902344 54.03125 109.140625 54.148438 C 110.140625 54.503906 110.667969 55.679688 110.257812 56.679688 L 108.433594 55.972656 L 110.257812 56.679688 Z M 106.609375 65.921875 " fill-opacity="1" fill-rule="nonzero"/><path fill="#ffffff" d="M 112.671875 113.25 C 110.847656 113.25 109.140625 113.957031 107.902344 115.191406 C 107.84375 115.25 107.84375 115.308594 107.785156 115.308594 C 106.667969 116.546875 105.960938 118.195312 105.960938 119.960938 C 105.960938 121.785156 106.667969 123.492188 107.902344 124.730469 C 107.960938 124.789062 108.019531 124.789062 108.019531 124.847656 C 109.257812 126.023438 110.90625 126.730469 112.671875 126.730469 C 114.554688 126.730469 116.203125 125.964844 117.4375 124.730469 C 118.675781 123.492188 119.441406 121.84375 119.441406 119.960938 C 119.441406 118.078125 118.675781 116.429688 117.4375 115.191406 C 116.203125 113.957031 114.554688 113.25 112.671875 113.25 Z M 109.316406 116.605469 L 110.667969 117.960938 C 111.199219 117.429688 111.90625 117.136719 112.671875 117.136719 C 113.4375 117.136719 114.144531 117.488281 114.671875 117.960938 C 115.203125 118.488281 115.496094 119.195312 115.496094 119.960938 C 115.496094 120.726562 115.203125 121.433594 114.671875 121.960938 C 114.144531 122.492188 113.4375 122.785156 112.671875 122.785156 C 111.90625 122.785156 111.257812 122.492188 110.789062 122.019531 C 110.730469 122.019531 110.730469 121.960938 110.667969 121.960938 L 109.316406 123.316406 L 110.667969 121.960938 C 110.199219 121.433594 109.847656 120.726562 109.847656 119.960938 C 109.847656 119.195312 110.140625 118.546875 110.609375 118.078125 C 110.609375 118.019531 110.667969 118.019531 110.667969 117.960938 Z M 109.316406 116.605469 " fill-opacity="1" fill-rule="nonzero"/><path fill="#ffffff" d="M 84.710938 113.25 C 82.886719 113.25 81.179688 113.957031 79.941406 115.191406 C 79.941406 115.25 79.882812 115.308594 79.824219 115.308594 C 78.707031 116.546875 78 118.195312 78 119.960938 C 78 121.785156 78.765625 123.492188 79.941406 124.730469 C 80 124.789062 80.058594 124.789062 80.117188 124.847656 C 81.296875 126.023438 82.945312 126.730469 84.710938 126.730469 C 86.59375 126.730469 88.300781 125.964844 89.476562 124.730469 C 90.714844 123.492188 91.480469 121.84375 91.480469 119.960938 C 91.480469 118.078125 90.714844 116.429688 89.476562 115.191406 C 88.300781 113.957031 86.59375 113.25 84.710938 113.25 Z M 81.355469 116.605469 L 82.707031 117.960938 C 83.238281 117.429688 83.945312 117.136719 84.710938 117.136719 C 85.535156 117.136719 86.242188 117.488281 86.710938 117.960938 C 87.242188 118.488281 87.535156 119.195312 87.535156 119.960938 C 87.535156 120.726562 87.242188 121.433594 86.710938 121.960938 C 86.242188 122.492188 85.535156 122.785156 84.710938 122.785156 C 84.003906 122.785156 83.296875 122.492188 82.828125 122.019531 C 82.765625 122.019531 82.765625 121.960938 82.707031 121.960938 L 81.355469 123.316406 L 82.707031 121.960938 C 82.238281 121.433594 81.882812 120.726562 81.882812 119.960938 C 81.882812 119.195312 82.179688 118.546875 82.648438 118.078125 C 82.707031 118.019531 82.707031 118.019531 82.765625 117.960938 Z M 81.355469 116.605469 " fill-opacity="1" fill-rule="nonzero"/><path fill="#ffffff" d="M 56.808594 113.25 C 54.925781 113.25 53.21875 113.957031 52.039062 115.191406 C 51.980469 115.25 51.921875 115.308594 51.921875 115.308594 C 50.746094 116.546875 50.039062 118.195312 50.039062 119.960938 C 50.039062 121.785156 50.804688 123.492188 52.039062 124.730469 C 52.039062 124.789062 52.097656 124.789062 52.15625 124.847656 C 53.335938 126.023438 54.984375 126.730469 56.808594 126.730469 C 58.632812 126.730469 60.339844 125.964844 61.574219 124.730469 C 62.753906 123.492188 63.519531 121.84375 63.519531 119.960938 C 63.519531 118.136719 62.753906 116.429688 61.574219 115.191406 L 61.515625 115.191406 L 61.574219 115.191406 C 61.515625 115.132812 61.457031 115.132812 61.398438 115.074219 C 60.222656 113.898438 58.574219 113.25 56.808594 113.25 Z M 53.394531 116.605469 L 54.804688 117.960938 C 55.277344 117.429688 55.984375 117.136719 56.808594 117.136719 C 57.515625 117.136719 58.21875 117.429688 58.691406 117.902344 C 58.691406 117.902344 58.75 117.960938 58.75 117.960938 L 60.164062 116.605469 L 58.808594 117.960938 C 59.28125 118.488281 59.574219 119.195312 59.574219 119.960938 C 59.574219 120.726562 59.28125 121.433594 58.75 121.960938 C 58.28125 122.492188 57.574219 122.785156 56.808594 122.785156 C 56.042969 122.785156 55.394531 122.492188 54.863281 122.019531 C 54.863281 122.019531 54.804688 121.960938 54.804688 121.960938 L 53.394531 123.316406 L 54.804688 121.960938 C 54.277344 121.433594 53.980469 120.726562 53.980469 119.960938 C 53.980469 119.195312 54.21875 118.546875 54.6875 118.078125 C 54.746094 118.019531 54.746094 118.019531 54.804688 117.960938 Z M 53.394531 116.605469 " fill-opacity="1" fill-rule="nonzero"/><path fill="#ffffff" d="M 115.671875 91.585938 L 100.191406 91.585938 C 99.132812 91.585938 98.25 92.46875 98.25 93.589844 L 98.25 107.246094 C 98.25 108.363281 99.132812 109.246094 100.191406 109.246094 L 115.671875 109.246094 C 116.792969 109.246094 117.675781 108.363281 117.675781 107.246094 L 117.675781 93.589844 C 117.675781 92.46875 116.792969 91.585938 115.671875 91.585938 Z M 102.132812 95.53125 L 113.730469 95.53125 L 113.730469 105.304688 L 102.132812 105.304688 Z M 102.132812 95.53125 " fill-opacity="1" fill-rule="nonzero"/><path fill="#ffffff" d="M 100.191406 91.585938 L 84.710938 91.585938 C 83.589844 91.585938 82.707031 92.46875 82.707031 93.589844 L 82.707031 107.246094 C 82.707031 108.363281 83.589844 109.246094 84.710938 109.246094 L 100.191406 109.246094 C 101.25 109.246094 102.132812 108.363281 102.132812 107.246094 L 102.132812 93.589844 C 102.132812 92.46875 101.25 91.585938 100.191406 91.585938 Z M 86.652344 95.53125 L 98.25 95.53125 L 98.25 105.304688 L 86.652344 105.304688 Z M 86.652344 95.53125 " fill-opacity="1" fill-rule="nonzero"/><path fill="#ffffff" d="M 107.960938 77.929688 L 92.421875 77.929688 C 91.363281 77.929688 90.480469 78.8125 90.480469 79.875 L 90.480469 93.589844 C 90.480469 94.648438 91.363281 95.53125 92.421875 95.53125 L 107.960938 95.53125 C 109.023438 95.53125 109.90625 94.648438 109.90625 93.589844 L 109.90625 79.875 C 109.90625 78.8125 109.023438 77.929688 107.960938 77.929688 Z M 94.421875 81.816406 L 105.960938 81.816406 L 105.960938 91.585938 L 94.421875 91.585938 Z M 94.421875 81.816406 " fill-opacity="1" fill-rule="nonzero"/></svg>