<svg xmlns="http://www.w3.org/2000/svg" xmlns:xlink="http://www.w3.org/1999/xlink" width="226" zoomAndPan="magnify" viewBox="0 0 169.92 170.249993" height="226" preserveAspectRatio="xMidYMid meet" version="1.0"><defs><clipPath id="aa01b8791b"><path d="M 0.332031 0 L 169.09375 0 L 169.09375 168.761719 L 0.332031 168.761719 Z M 0.332031 0 " clip-rule="nonzero"/></clipPath><clipPath id="b2dc4f3110"><path d="M 84.714844 0 C 38.109375 0 0.332031 37.777344 0.332031 84.378906 C 0.332031 130.984375 38.109375 168.761719 84.714844 168.761719 C 131.316406 168.761719 169.09375 130.984375 169.09375 84.378906 C 169.09375 37.777344 131.316406 0 84.714844 0 Z M 84.714844 0 " clip-rule="nonzero"/></clipPath><clipPath id="8f08aed715"><path d="M 37.8125 40.722656 L 131.578125 40.722656 L 131.578125 127.792969 L 37.8125 127.792969 Z M 37.8125 40.722656 " clip-rule="nonzero"/></clipPath></defs><g clip-path="url(#aa01b8791b)"><g clip-path="url(#b2dc4f3110)"><path fill="#e06666" d="M 0.332031 0 L 169.09375 0 L 169.09375 168.761719 L 0.332031 168.761719 Z M 0.332031 0 " fill-opacity="1" fill-rule="nonzero"/></g></g><g clip-path="url(#8f08aed715)"><path fill="#ffffff" d="M 131.015625 53.285156 C 131.386719 52.980469 131.597656 52.527344 131.597656 52.042969 L 131.597656 42.339844 C 131.597656 41.449219 130.871094 40.722656 129.980469 40.722656 L 97.644531 40.722656 C 97.289062 40.722656 96.929688 40.835938 96.65625 41.0625 L 38.445312 86.335938 C 38.1875 86.5625 38.011719 86.886719 37.976562 86.933594 C 37.882812 87.144531 37.816406 87.371094 37.816406 87.613281 L 37.816406 97.316406 C 37.816406 98.207031 38.542969 98.933594 39.433594 98.933594 L 49.136719 98.933594 C 50.023438 98.933594 50.753906 99.660156 50.753906 100.550781 L 50.753906 113.484375 C 50.753906 114.375 50.023438 115.101562 49.136719 115.101562 L 39.433594 115.101562 C 38.542969 115.101562 37.816406 115.828125 37.816406 116.71875 L 37.816406 126.421875 C 37.816406 127.308594 38.542969 128.039062 39.433594 128.039062 L 75.007812 128.039062 C 75.378906 128.039062 75.75 127.910156 76.039062 127.664062 L 131.015625 82.390625 C 131.386719 82.085938 131.597656 81.632812 131.597656 81.148438 L 131.597656 71.445312 C 131.597656 70.554688 130.871094 69.828125 129.980469 69.828125 L 120.28125 69.828125 C 119.390625 69.828125 118.664062 69.101562 118.664062 68.210938 L 118.664062 63.457031 Z M 98.207031 43.957031 L 125.488281 43.957031 L 74.441406 85.996094 L 44.140625 85.996094 L 98.191406 43.957031 Z M 41.050781 118.335938 L 49.136719 118.335938 C 51.804688 118.335938 53.984375 116.152344 53.984375 113.484375 L 53.984375 100.550781 C 53.984375 97.882812 51.804688 95.699219 49.136719 95.699219 L 41.050781 95.699219 L 41.050781 89.230469 L 73.390625 89.230469 L 73.390625 95.699219 L 65.304688 95.699219 C 62.636719 95.699219 60.453125 97.882812 60.453125 100.550781 L 60.453125 113.484375 C 60.453125 116.152344 62.636719 118.335938 65.304688 118.335938 L 73.390625 118.335938 L 73.390625 124.804688 L 41.050781 124.804688 Z M 76.621094 122.992188 L 76.621094 117.480469 L 128.363281 74.871094 L 128.363281 80.386719 Z M 120.28125 73.0625 L 125.46875 73.0625 L 74.425781 115.101562 L 65.304688 115.101562 C 64.414062 115.101562 63.6875 114.375 63.6875 113.484375 L 63.6875 100.550781 C 63.6875 99.660156 64.414062 98.933594 65.304688 98.933594 L 75.007812 98.933594 C 75.378906 98.933594 75.75 98.804688 76.039062 98.5625 L 115.429688 66.125 L 115.429688 68.210938 C 115.429688 70.878906 117.613281 73.0625 120.28125 73.0625 Z M 76.621094 93.886719 L 76.621094 88.375 L 128.363281 45.769531 L 128.363281 51.28125 Z M 76.621094 93.886719 " fill-opacity="1" fill-rule="nonzero"/></g></svg>