<svg xmlns="http://www.w3.org/2000/svg" xmlns:xlink="http://www.w3.org/1999/xlink" width="226" zoomAndPan="magnify" viewBox="0 0 169.92 170.249993" height="226" preserveAspectRatio="xMidYMid meet" version="1.0"><defs><clipPath id="beb0b547bb"><path d="M 0.332031 0 L 169.09375 0 L 169.09375 168.761719 L 0.332031 168.761719 Z M 0.332031 0 " clip-rule="nonzero"/></clipPath><clipPath id="1f9ccdc27e"><path d="M 84.714844 0 C 38.109375 0 0.332031 37.777344 0.332031 84.378906 C 0.332031 130.984375 38.109375 168.761719 84.714844 168.761719 C 131.316406 168.761719 169.09375 130.984375 169.09375 84.378906 C 169.09375 37.777344 131.316406 0 84.714844 0 Z M 84.714844 0 " clip-rule="nonzero"/></clipPath><clipPath id="fd8f0d2ddc"><path d="M 62 37.378906 L 108 37.378906 L 108 80 L 62 80 Z M 62 37.378906 " clip-rule="nonzero"/></clipPath><clipPath id="73f3ffc33c"><path d="M 88 37.378906 L 102 37.378906 L 102 68 L 88 68 Z M 88 37.378906 " clip-rule="nonzero"/></clipPath><clipPath id="ce8cca33aa"><path d="M 92 88 L 136.675781 88 L 136.675781 131.148438 L 92 131.148438 Z M 92 88 " clip-rule="nonzero"/></clipPath><clipPath id="68baa34b95"><path d="M 32.492188 88 L 78 88 L 78 131.148438 L 32.492188 131.148438 Z M 32.492188 88 " clip-rule="nonzero"/></clipPath></defs><g clip-path="url(#beb0b547bb)"><g clip-path="url(#1f9ccdc27e)"><path fill="#ab823b" d="M 0.332031 0 L 169.09375 0 L 169.09375 168.761719 L 0.332031 168.761719 Z M 0.332031 0 " fill-opacity="1" fill-rule="nonzero"/></g></g><g clip-path="url(#fd8f0d2ddc)"><path fill="#ffffff" d="M 85.089844 79.960938 C 85.023438 79.960938 84.953125 79.957031 84.882812 79.941406 L 74.230469 78.082031 C 73.867188 78.019531 73.554688 77.800781 73.375 77.480469 L 67.878906 67.757812 C 67.851562 67.710938 67.828125 67.65625 67.808594 67.605469 L 62.394531 53.824219 C 62.277344 53.515625 62.285156 53.167969 62.425781 52.867188 L 64.875 47.539062 C 64.933594 47.417969 65.007812 47.308594 65.097656 47.210938 L 73.890625 37.914062 C 74.121094 37.667969 74.441406 37.527344 74.78125 37.527344 L 92.617188 37.527344 C 92.78125 37.527344 92.945312 37.5625 93.097656 37.625 L 102.816406 41.769531 C 103.09375 41.886719 103.3125 42.097656 103.441406 42.367188 L 106.992188 49.808594 C 107.132812 50.105469 107.152344 50.445312 107.035156 50.757812 L 101.285156 66.3125 C 101.230469 66.46875 101.140625 66.609375 101.027344 66.730469 L 91.558594 76.707031 C 91.464844 76.804688 91.355469 76.890625 91.230469 76.953125 L 85.652344 79.828125 C 85.476562 79.917969 85.285156 79.960938 85.089844 79.960938 Z M 75.21875 75.773438 L 84.898438 77.464844 L 89.929688 74.871094 L 99.082031 65.230469 L 104.5625 50.394531 L 101.433594 43.835938 L 92.367188 39.972656 L 75.304688 39.972656 L 67.011719 48.746094 L 64.863281 53.414062 L 70.050781 66.628906 Z M 75.21875 75.773438 " fill-opacity="1" fill-rule="evenodd"/></g><g clip-path="url(#73f3ffc33c)"><path fill="#ffffff" d="M 100.140625 67.109375 C 99.738281 67.109375 99.34375 66.910156 99.109375 66.546875 L 88.289062 49.636719 C 88.09375 49.332031 88.042969 48.953125 88.15625 48.605469 L 91.453125 38.375 C 91.660156 37.734375 92.347656 37.378906 92.992188 37.589844 C 93.632812 37.792969 93.988281 38.484375 93.78125 39.125 L 90.660156 48.804688 L 101.171875 65.230469 C 101.535156 65.796875 101.367188 66.554688 100.800781 66.917969 C 100.597656 67.046875 100.367188 67.109375 100.140625 67.109375 Z M 100.140625 67.109375 " fill-opacity="1" fill-rule="evenodd"/></g><path fill="#ffffff" d="M 74.269531 54.597656 C 74.039062 54.597656 73.808594 54.53125 73.609375 54.40625 L 65.324219 49.078125 C 64.757812 48.714844 64.59375 47.957031 64.957031 47.390625 C 65.324219 46.820312 66.078125 46.65625 66.648438 47.023438 L 74.460938 52.046875 L 88.976562 47.804688 C 89.625 47.617188 90.304688 47.988281 90.492188 48.636719 C 90.683594 49.285156 90.308594 49.964844 89.660156 50.152344 L 74.613281 54.550781 C 74.5 54.582031 74.386719 54.597656 74.269531 54.597656 Z M 74.269531 54.597656 " fill-opacity="1" fill-rule="evenodd"/><path fill="#ffffff" d="M 90.667969 77.085938 C 90.425781 77.085938 90.179688 77.011719 89.964844 76.863281 L 77.617188 68.136719 L 68.980469 68.378906 C 68.296875 68.398438 67.742188 67.867188 67.722656 67.191406 C 67.703125 66.515625 68.234375 65.953125 68.910156 65.9375 L 77.957031 65.679688 C 78.222656 65.675781 78.480469 65.753906 78.695312 65.90625 L 91.375 74.867188 C 91.929688 75.253906 92.058594 76.019531 91.671875 76.570312 C 91.433594 76.90625 91.054688 77.085938 90.667969 77.085938 Z M 90.667969 77.085938 " fill-opacity="1" fill-rule="evenodd"/><path fill="#ffffff" d="M 77.988281 68.125 C 77.453125 68.125 76.960938 67.769531 76.8125 67.226562 L 73.09375 53.699219 C 72.914062 53.046875 73.292969 52.375 73.945312 52.195312 C 74.597656 52.019531 75.269531 52.402344 75.449219 53.050781 L 79.167969 66.578125 C 79.347656 67.230469 78.964844 67.902344 78.3125 68.082031 C 78.207031 68.113281 78.097656 68.125 77.988281 68.125 Z M 77.988281 68.125 " fill-opacity="1" fill-rule="evenodd"/><g clip-path="url(#ce8cca33aa)"><path fill="#ffffff" d="M 114.851562 131.363281 C 114.78125 131.363281 114.710938 131.359375 114.640625 131.34375 L 103.988281 129.488281 C 103.628906 129.421875 103.3125 129.203125 103.136719 128.882812 L 97.640625 119.164062 C 97.613281 119.113281 97.585938 119.0625 97.566406 119.007812 L 92.15625 105.226562 C 92.035156 104.917969 92.046875 104.570312 92.183594 104.269531 L 94.636719 98.941406 C 94.691406 98.820312 94.765625 98.710938 94.859375 98.613281 L 103.652344 89.3125 C 103.878906 89.070312 104.203125 88.929688 104.539062 88.929688 L 122.375 88.929688 C 122.542969 88.929688 122.703125 88.964844 122.855469 89.027344 L 132.578125 93.171875 C 132.851562 93.285156 133.074219 93.5 133.203125 93.765625 L 136.75 101.207031 C 136.894531 101.503906 136.910156 101.847656 136.796875 102.15625 L 131.046875 117.714844 C 130.988281 117.867188 130.902344 118.011719 130.789062 118.132812 L 121.316406 128.109375 C 121.222656 128.207031 121.113281 128.289062 120.992188 128.355469 L 115.410156 131.230469 C 115.238281 131.316406 115.046875 131.363281 114.851562 131.363281 Z M 104.980469 127.179688 L 114.65625 128.867188 L 119.6875 126.277344 L 128.84375 116.632812 L 134.324219 101.796875 L 131.191406 95.238281 L 122.128906 91.375 L 105.066406 91.375 L 96.773438 100.148438 L 94.621094 104.816406 L 99.8125 118.035156 Z M 104.980469 127.179688 " fill-opacity="1" fill-rule="evenodd"/></g><path fill="#ffffff" d="M 129.902344 118.511719 C 129.496094 118.511719 129.105469 118.316406 128.871094 117.949219 L 118.050781 101.042969 C 117.851562 100.734375 117.804688 100.355469 117.914062 100.007812 L 121.214844 89.777344 C 121.421875 89.136719 122.109375 88.78125 122.75 88.988281 C 123.394531 89.199219 123.75 89.886719 123.539062 90.527344 L 120.417969 100.207031 L 130.929688 116.632812 C 131.292969 117.199219 131.128906 117.957031 130.558594 118.320312 C 130.355469 118.453125 130.128906 118.511719 129.902344 118.511719 Z M 129.902344 118.511719 " fill-opacity="1" fill-rule="evenodd"/><path fill="#ffffff" d="M 104.03125 106 C 103.796875 106 103.566406 105.933594 103.371094 105.808594 L 95.085938 100.480469 C 94.515625 100.117188 94.351562 99.359375 94.71875 98.792969 C 95.082031 98.222656 95.839844 98.058594 96.40625 98.425781 L 104.222656 103.449219 L 118.734375 99.207031 C 119.382812 99.019531 120.0625 99.390625 120.25 100.039062 C 120.441406 100.6875 120.070312 101.367188 119.421875 101.554688 L 104.371094 105.953125 C 104.257812 105.984375 104.144531 106 104.03125 106 Z M 104.03125 106 " fill-opacity="1" fill-rule="evenodd"/><path fill="#ffffff" d="M 120.429688 128.488281 C 120.1875 128.488281 119.941406 128.417969 119.726562 128.265625 L 107.378906 119.539062 L 98.738281 119.78125 C 98.058594 119.796875 97.5 119.269531 97.484375 118.59375 C 97.464844 117.917969 97.996094 117.359375 98.671875 117.339844 L 107.714844 117.085938 C 107.976562 117.078125 108.238281 117.15625 108.453125 117.304688 L 121.136719 126.269531 C 121.6875 126.660156 121.820312 127.421875 121.429688 127.972656 C 121.191406 128.308594 120.8125 128.488281 120.429688 128.488281 Z M 120.429688 128.488281 " fill-opacity="1" fill-rule="evenodd"/><path fill="#ffffff" d="M 107.746094 119.53125 C 107.210938 119.53125 106.722656 119.171875 106.570312 118.628906 L 102.851562 105.101562 C 102.671875 104.453125 103.054688 103.78125 103.707031 103.601562 C 104.355469 103.421875 105.03125 103.800781 105.210938 104.453125 L 108.925781 117.980469 C 109.105469 118.632812 108.726562 119.304688 108.074219 119.484375 C 107.964844 119.515625 107.855469 119.53125 107.746094 119.53125 Z M 107.746094 119.53125 " fill-opacity="1" fill-rule="evenodd"/><g clip-path="url(#68baa34b95)"><path fill="#ffffff" d="M 55.332031 131.363281 C 55.261719 131.363281 55.191406 131.359375 55.121094 131.34375 L 44.46875 129.488281 C 44.109375 129.421875 43.796875 129.203125 43.617188 128.882812 L 38.121094 119.164062 C 38.09375 119.113281 38.066406 119.0625 38.046875 119.007812 L 32.636719 105.226562 C 32.515625 104.917969 32.527344 104.570312 32.664062 104.269531 L 35.117188 98.941406 C 35.171875 98.820312 35.25 98.710938 35.339844 98.613281 L 44.132812 89.3125 C 44.363281 89.070312 44.683594 88.929688 45.019531 88.929688 L 62.859375 88.929688 C 63.023438 88.929688 63.1875 88.964844 63.335938 89.027344 L 73.058594 93.171875 C 73.332031 93.285156 73.554688 93.5 73.683594 93.765625 L 77.234375 101.207031 C 77.375 101.503906 77.390625 101.851562 77.277344 102.15625 L 71.527344 117.714844 C 71.46875 117.871094 71.382812 118.011719 71.269531 118.132812 L 61.796875 128.109375 C 61.703125 128.210938 61.59375 128.289062 61.472656 128.355469 L 55.890625 131.230469 C 55.71875 131.316406 55.527344 131.363281 55.332031 131.363281 Z M 45.460938 127.179688 L 55.136719 128.867188 L 60.167969 126.277344 L 69.320312 116.632812 L 74.804688 101.796875 L 71.675781 95.238281 L 62.609375 91.375 L 45.546875 91.375 L 37.253906 100.148438 L 35.105469 104.816406 L 40.292969 118.035156 Z M 45.460938 127.179688 " fill-opacity="1" fill-rule="evenodd"/></g><path fill="#ffffff" d="M 70.382812 118.511719 C 69.980469 118.511719 69.585938 118.316406 69.351562 117.949219 L 58.53125 101.042969 C 58.332031 100.734375 58.285156 100.355469 58.394531 100.007812 L 61.695312 89.777344 C 61.902344 89.136719 62.589844 88.78125 63.234375 88.988281 C 63.875 89.199219 64.230469 89.886719 64.023438 90.527344 L 60.898438 100.207031 L 71.410156 116.632812 C 71.773438 117.199219 71.609375 117.957031 71.039062 118.320312 C 70.835938 118.453125 70.609375 118.511719 70.382812 118.511719 Z M 70.382812 118.511719 " fill-opacity="1" fill-rule="evenodd"/><path fill="#ffffff" d="M 44.511719 106 C 44.277344 106 44.050781 105.933594 43.851562 105.808594 L 35.566406 100.480469 C 34.996094 100.117188 34.835938 99.359375 35.199219 98.792969 C 35.5625 98.222656 36.320312 98.058594 36.886719 98.425781 L 44.703125 103.449219 L 59.21875 99.207031 C 59.863281 99.019531 60.542969 99.390625 60.734375 100.039062 C 60.921875 100.6875 60.550781 101.367188 59.902344 101.554688 L 44.855469 105.953125 C 44.742188 105.984375 44.625 106 44.511719 106 Z M 44.511719 106 " fill-opacity="1" fill-rule="evenodd"/><path fill="#ffffff" d="M 60.914062 128.488281 C 60.667969 128.488281 60.421875 128.417969 60.207031 128.265625 L 47.859375 119.539062 L 39.21875 119.78125 C 38.539062 119.796875 37.984375 119.269531 37.964844 118.59375 C 37.945312 117.917969 38.476562 117.359375 39.152344 117.335938 L 48.195312 117.085938 C 48.460938 117.078125 48.71875 117.152344 48.9375 117.304688 L 61.621094 126.265625 C 62.167969 126.660156 62.300781 127.421875 61.910156 127.972656 C 61.671875 128.308594 61.296875 128.488281 60.914062 128.488281 Z M 60.914062 128.488281 " fill-opacity="1" fill-rule="evenodd"/><path fill="#ffffff" d="M 48.230469 119.53125 C 47.691406 119.53125 47.203125 119.171875 47.054688 118.628906 L 43.332031 105.101562 C 43.152344 104.453125 43.535156 103.78125 44.1875 103.601562 C 44.839844 103.421875 45.511719 103.800781 45.691406 104.453125 L 49.410156 117.980469 C 49.589844 118.632812 49.207031 119.304688 48.554688 119.484375 C 48.445312 119.515625 48.335938 119.53125 48.230469 119.53125 Z M 48.230469 119.53125 " fill-opacity="1" fill-rule="evenodd"/></svg>