<svg xmlns="http://www.w3.org/2000/svg" xmlns:xlink="http://www.w3.org/1999/xlink" width="226" zoomAndPan="magnify" viewBox="0 0 169.92 170.249993" height="226" preserveAspectRatio="xMidYMid meet" version="1.0"><defs><clipPath id="6794db4f2b"><path d="M 0.332031 0 L 169.09375 0 L 169.09375 168.761719 L 0.332031 168.761719 Z M 0.332031 0 " clip-rule="nonzero"/></clipPath><clipPath id="15a76c9554"><path d="M 84.714844 0 C 38.109375 0 0.332031 37.777344 0.332031 84.378906 C 0.332031 130.984375 38.109375 168.761719 84.714844 168.761719 C 131.316406 168.761719 169.09375 130.984375 169.09375 84.378906 C 169.09375 37.777344 131.316406 0 84.714844 0 Z M 84.714844 0 " clip-rule="nonzero"/></clipPath><clipPath id="c50a508d83"><path d="M 81 25.132812 L 93 25.132812 L 93 49 L 81 49 Z M 81 25.132812 " clip-rule="nonzero"/></clipPath><clipPath id="deef49c4e0"><path d="M 57.757812 59 L 111.335938 59 L 111.335938 143.460938 L 57.757812 143.460938 Z M 57.757812 59 " clip-rule="nonzero"/></clipPath></defs><g clip-path="url(#6794db4f2b)"><g clip-path="url(#15a76c9554)"><path fill="#15354c" d="M 0.332031 0 L 169.09375 0 L 169.09375 168.761719 L 0.332031 168.761719 Z M 0.332031 0 " fill-opacity="1" fill-rule="nonzero"/></g></g><path fill="#ffffff" d="M 84.699219 58.953125 C 84.664062 58.730469 84.640625 58.503906 84.621094 58.273438 L 84.621094 58.285156 C 84.605469 58.078125 84.601562 57.871094 84.601562 57.660156 C 84.597656 57.625 84.601562 57.59375 84.601562 57.5625 C 84.601562 57.382812 84.609375 57.199219 84.617188 57.019531 C 84.621094 56.960938 84.625 56.898438 84.632812 56.839844 C 84.644531 56.683594 84.65625 56.527344 84.671875 56.371094 C 84.679688 56.308594 84.6875 56.242188 84.695312 56.179688 C 84.714844 56.023438 84.734375 55.867188 84.757812 55.714844 C 84.765625 55.65625 84.773438 55.597656 84.785156 55.542969 C 84.8125 55.367188 84.84375 55.195312 84.875 55.027344 C 84.878906 54.992188 84.886719 54.957031 84.894531 54.925781 C 84.976562 54.5 85.070312 54.082031 85.167969 53.683594 C 85.832031 51.003906 87.203125 47.550781 90.332031 46.96875 C 90.5625 46.925781 90.796875 46.90625 91.03125 46.90625 C 91.0625 46.90625 91.09375 46.90625 91.125 46.90625 C 92.277344 46.933594 93.421875 47.46875 93.917969 48.484375 C 93.988281 48.621094 94.042969 48.769531 94.085938 48.925781 C 94.605469 50.863281 93.070312 52.316406 91.753906 53.484375 C 90.527344 54.578125 89.125 55.449219 87.757812 56.359375 C 87.109375 56.789062 84.945312 57.925781 84.746094 58.929688 L 84.699219 58.953125 " fill-opacity="1" fill-rule="nonzero"/><path fill="#ffffff" d="M 83.855469 56.570312 L 83.796875 56.558594 C 83.714844 56.335938 83.597656 56.105469 83.46875 55.875 C 83.40625 55.761719 83.339844 55.652344 83.269531 55.546875 L 83.269531 55.542969 C 83.066406 55.21875 82.863281 54.933594 82.730469 54.734375 C 82.136719 53.847656 81.4375 53.03125 80.738281 52.21875 C 79.691406 51.003906 78.460938 49.96875 77.179688 49.003906 C 74.832031 47.242188 71.566406 45.757812 70.628906 42.777344 C 70.503906 42.394531 70.453125 42.007812 70.457031 41.636719 C 70.460938 41.304688 70.511719 40.984375 70.613281 40.679688 L 70.617188 40.660156 C 70.640625 40.589844 70.664062 40.523438 70.691406 40.457031 L 70.710938 40.414062 C 70.792969 40.230469 70.890625 40.054688 71.007812 39.890625 L 71.070312 39.800781 C 71.101562 39.765625 71.132812 39.726562 71.164062 39.691406 C 71.195312 39.652344 71.226562 39.621094 71.257812 39.585938 C 71.289062 39.554688 71.316406 39.523438 71.347656 39.492188 C 71.394531 39.449219 71.4375 39.410156 71.484375 39.371094 L 71.558594 39.308594 C 71.632812 39.25 71.707031 39.195312 71.789062 39.140625 L 71.859375 39.101562 C 71.921875 39.0625 71.988281 39.027344 72.054688 38.992188 L 72.140625 38.949219 C 72.210938 38.917969 72.277344 38.886719 72.351562 38.863281 L 72.4375 38.828125 C 72.535156 38.792969 72.640625 38.757812 72.746094 38.734375 C 73.101562 38.644531 73.453125 38.601562 73.804688 38.601562 C 75.636719 38.601562 77.421875 39.71875 78.617188 41.003906 C 80.394531 42.914062 81.246094 45.4375 81.882812 47.902344 C 82.625 50.777344 83.285156 53.640625 83.851562 56.554688 L 83.855469 56.570312 " fill-opacity="1" fill-rule="nonzero"/><g clip-path="url(#c50a508d83)"><path fill="#ffffff" d="M 83.699219 48.730469 L 83.640625 48.726562 C 82.566406 46.234375 82.21875 43.503906 82.003906 40.820312 C 81.957031 40.226562 81.925781 39.621094 81.910156 39.019531 L 81.910156 39.027344 L 81.910156 39.007812 C 81.894531 38.394531 81.894531 37.777344 81.914062 37.167969 C 81.933594 36.496094 81.984375 35.75 82.074219 34.96875 C 82.46875 31.589844 83.632812 27.546875 86.46875 25.902344 C 87.148438 25.511719 88.316406 25.191406 89.308594 25.191406 C 89.335938 25.191406 89.363281 25.191406 89.390625 25.191406 C 89.730469 25.199219 90.042969 25.242188 90.304688 25.335938 C 91.199219 25.65625 91.75 26.398438 92.027344 27.269531 C 92.132812 27.59375 92.207031 27.914062 92.261719 28.230469 C 92.285156 28.382812 92.304688 28.535156 92.316406 28.6875 L 92.324219 28.765625 C 92.332031 28.894531 92.339844 29.019531 92.34375 29.148438 L 92.34375 29.238281 C 92.34375 29.367188 92.34375 29.496094 92.335938 29.625 L 92.332031 29.695312 C 92.328125 29.832031 92.316406 29.96875 92.300781 30.105469 L 92.296875 30.140625 L 92.296875 30.136719 C 92.246094 30.574219 92.15625 31.007812 92.035156 31.433594 C 91.316406 33.863281 89.816406 35.988281 88.378906 38.054688 C 87.117188 39.875 85.898438 41.671875 84.886719 43.644531 C 84.097656 45.175781 83.238281 47.007812 83.699219 48.730469 " fill-opacity="1" fill-rule="nonzero"/></g><g clip-path="url(#deef49c4e0)"><path fill="#ffffff" d="M 111.671875 143.566406 L 57.769531 143.566406 L 57.769531 138.699219 L 62.070312 138.699219 L 73.527344 78.183594 L 72.863281 78.183594 L 72.863281 72.644531 L 74.644531 72.644531 L 74.644531 70.375 L 82.332031 70.375 L 82.332031 59.296875 L 87.109375 59.296875 L 87.109375 70.375 L 95.304688 70.375 L 95.304688 72.644531 L 97.085938 72.644531 L 97.085938 78.183594 L 95.910156 78.183594 L 107.367188 138.699219 L 111.671875 138.699219 L 111.671875 143.566406 M 87.109375 131.816406 L 87.109375 136.515625 L 95.808594 136.515625 L 95.808594 138.699219 L 102.335938 138.699219 L 101.03125 131.816406 L 87.109375 131.816406 M 68.40625 131.816406 L 67.101562 138.699219 L 73.632812 138.699219 L 73.632812 136.515625 L 82.332031 136.515625 L 82.332031 131.816406 L 68.40625 131.816406 M 87.109375 125.414062 L 87.109375 130.640625 L 98.957031 130.640625 L 87.109375 125.414062 M 82.332031 124.84375 L 68.640625 130.5625 L 68.628906 130.640625 L 82.332031 130.640625 L 82.332031 124.84375 M 98.4375 118.109375 L 87.109375 122.847656 L 87.109375 123.945312 L 100.675781 129.929688 L 98.4375 118.109375 M 70.964844 118.292969 L 68.9375 129 L 82.332031 123.402344 L 82.332031 123.308594 L 70.964844 118.292969 M 71.394531 116.035156 L 71.222656 116.9375 L 82.332031 121.839844 L 82.332031 116.035156 L 71.394531 116.035156 M 87.109375 116.035156 L 87.109375 121.40625 L 98.183594 116.773438 L 98.078125 116.214844 L 97.777344 116.035156 L 87.109375 116.035156 M 87.109375 109.808594 L 87.109375 114.863281 L 95.761719 114.863281 L 87.109375 109.808594 M 82.332031 109.21875 L 72.128906 114.863281 L 82.332031 114.863281 L 82.332031 109.21875 M 95.386719 101.996094 L 87.109375 106.574219 L 87.109375 108.339844 L 97.765625 114.5625 L 95.386719 101.996094 M 74.019531 102.167969 L 71.859375 113.570312 L 82.332031 107.777344 L 82.332031 107.019531 L 74.019531 102.167969 M 74.285156 100.761719 L 74.269531 100.84375 L 82.332031 105.550781 L 82.332031 100.761719 L 74.285156 100.761719 M 87.109375 100.761719 L 87.109375 105.132812 L 94.777344 100.890625 L 94.605469 100.761719 L 87.109375 100.761719 M 87.109375 95.234375 L 87.109375 99.585938 L 93.011719 99.585938 L 87.109375 95.234375 M 82.332031 94.625 L 75.230469 99.585938 L 82.332031 99.585938 L 82.332031 94.625 M 92.628906 87.429688 L 87.109375 91.289062 L 87.109375 93.765625 L 94.917969 99.523438 L 92.628906 87.429688 M 76.773438 87.617188 L 74.710938 98.507812 L 82.332031 93.183594 L 82.332031 91.714844 L 76.773438 87.617188 M 77.082031 85.988281 L 77.015625 86.328125 L 82.332031 90.246094 L 82.332031 85.988281 L 77.082031 85.988281 M 87.109375 85.988281 L 87.109375 89.847656 L 92.386719 86.15625 L 92.355469 85.988281 L 87.109375 85.988281 M 87.109375 78.183594 L 87.109375 84.8125 L 92.132812 84.8125 L 90.878906 78.183594 L 87.109375 78.183594 M 78.558594 78.183594 L 77.304688 84.8125 L 82.332031 84.8125 L 82.332031 78.183594 L 78.558594 78.183594 " fill-opacity="1" fill-rule="nonzero"/></g></svg>