<svg xmlns="http://www.w3.org/2000/svg" xmlns:xlink="http://www.w3.org/1999/xlink" width="226" zoomAndPan="magnify" viewBox="0 0 169.92 170.249993" height="226" preserveAspectRatio="xMidYMid meet" version="1.0"><defs><clipPath id="ee5fb1f38c"><path d="M 0.332031 0 L 169.09375 0 L 169.09375 168.761719 L 0.332031 168.761719 Z M 0.332031 0 " clip-rule="nonzero"/></clipPath><clipPath id="fd6f0ba10c"><path d="M 84.714844 0 C 38.109375 0 0.332031 37.777344 0.332031 84.378906 C 0.332031 130.984375 38.109375 168.761719 84.714844 168.761719 C 131.316406 168.761719 169.09375 130.984375 169.09375 84.378906 C 169.09375 37.777344 131.316406 0 84.714844 0 Z M 84.714844 0 " clip-rule="nonzero"/></clipPath><clipPath id="e64f2c2743"><path d="M 47.125 78 L 93 78 L 93 135 L 47.125 135 Z M 47.125 78 " clip-rule="nonzero"/></clipPath><clipPath id="fd6e9df7bd"><path d="M 108 32.625 L 122.289062 32.625 L 122.289062 47 L 108 47 Z M 108 32.625 " clip-rule="nonzero"/></clipPath><clipPath id="602c48d59a"><path d="M 88 51 L 122.289062 51 L 122.289062 136 L 88 136 Z M 88 51 " clip-rule="nonzero"/></clipPath></defs><g clip-path="url(#ee5fb1f38c)"><g clip-path="url(#fd6f0ba10c)"><path fill="#ffa74c" d="M 0.332031 0 L 169.09375 0 L 169.09375 168.761719 L 0.332031 168.761719 Z M 0.332031 0 " fill-opacity="1" fill-rule="nonzero"/></g></g><g clip-path="url(#e64f2c2743)"><path fill="#ffffff" d="M 51.480469 128.457031 L 62.710938 103.28125 C 62.824219 103.035156 62.878906 102.765625 62.878906 102.496094 L 62.878906 88.34375 C 62.878906 87.515625 62.355469 86.785156 61.574219 86.515625 C 60.292969 86.082031 58.003906 84.769531 58.003906 83.71875 C 58.003906 82.847656 58.003906 82.160156 61.128906 82.160156 L 79.082031 82.160156 C 82.203125 82.160156 82.203125 82.847656 82.203125 83.71875 C 82.203125 84.722656 80.089844 86.011719 78.632812 86.515625 C 77.851562 86.785156 77.328125 87.515625 77.328125 88.34375 L 77.328125 102.496094 C 77.328125 102.765625 77.382812 103.035156 77.496094 103.28125 L 88.726562 128.453125 C 88.769531 128.792969 88.800781 129.574219 88.464844 129.996094 C 88.144531 130.398438 87.402344 130.484375 86.839844 130.484375 L 53.367188 130.484375 C 52.808594 130.484375 52.074219 130.402344 51.75 130.003906 C 51.429688 129.613281 51.425781 128.863281 51.480469 128.457031 Z M 92.34375 127.097656 L 81.183594 102.085938 L 81.183594 89.625 C 83.019531 88.753906 86.058594 86.839844 86.058594 83.71875 C 86.058594 80.128906 83.710938 78.304688 79.082031 78.304688 L 61.128906 78.304688 C 56.496094 78.304688 54.148438 80.128906 54.148438 83.71875 C 54.148438 86.839844 57.191406 88.753906 59.027344 89.625 L 59.027344 102.085938 L 47.863281 127.097656 C 47.8125 127.214844 47.773438 127.332031 47.746094 127.449219 C 47.679688 127.746094 47.128906 130.386719 48.726562 132.398438 C 49.433594 133.285156 50.808594 134.339844 53.367188 134.339844 L 86.839844 134.339844 C 89.398438 134.339844 90.773438 133.285156 91.480469 132.398438 C 93.082031 130.386719 92.53125 127.746094 92.460938 127.449219 C 92.433594 127.332031 92.394531 127.214844 92.34375 127.097656 " fill-opacity="1" fill-rule="nonzero"/></g><path fill="#ffffff" d="M 56.132812 127.515625 L 70.53125 127.519531 L 84.074219 127.519531 C 84.289062 127.519531 84.492188 127.410156 84.613281 127.226562 C 84.730469 127.046875 84.75 126.816406 84.660156 126.617188 L 74.363281 103.535156 L 74.363281 97.929688 C 74.363281 97.574219 74.074219 97.289062 73.71875 97.289062 L 66.457031 97.289062 C 66.285156 97.289062 66.121094 97.355469 66 97.480469 C 65.878906 97.601562 65.8125 97.765625 65.8125 97.9375 L 65.84375 103.535156 L 55.546875 126.613281 C 55.460938 126.8125 55.476562 127.042969 55.59375 127.226562 C 55.714844 127.40625 55.914062 127.515625 56.132812 127.515625 " fill-opacity="1" fill-rule="nonzero"/><path fill="#ffffff" d="M 105.214844 60.59375 C 106.179688 60.59375 106.964844 61.378906 106.964844 62.34375 C 106.964844 63.308594 106.179688 64.09375 105.214844 64.09375 C 104.25 64.09375 103.464844 63.308594 103.464844 62.34375 C 103.464844 61.378906 104.25 60.59375 105.214844 60.59375 Z M 105.214844 66.382812 C 107.441406 66.382812 109.25 64.570312 109.25 62.34375 C 109.25 60.117188 107.441406 58.308594 105.214844 58.308594 C 102.988281 58.308594 101.179688 60.117188 101.179688 62.34375 C 101.179688 64.570312 102.988281 66.382812 105.214844 66.382812 " fill-opacity="1" fill-rule="nonzero"/><path fill="#ffffff" d="M 99.300781 42.375 C 100.707031 42.375 101.851562 43.519531 101.851562 44.925781 C 101.851562 46.332031 100.707031 47.472656 99.300781 47.472656 C 97.894531 47.472656 96.75 46.332031 96.75 44.925781 C 96.75 43.519531 97.894531 42.375 99.300781 42.375 Z M 99.300781 50.808594 C 102.542969 50.808594 105.183594 48.167969 105.183594 44.925781 C 105.183594 41.683594 102.542969 39.042969 99.300781 39.042969 C 96.058594 39.042969 93.417969 41.683594 93.417969 44.925781 C 93.417969 48.167969 96.058594 50.808594 99.300781 50.808594 " fill-opacity="1" fill-rule="nonzero"/><g clip-path="url(#fd6e9df7bd)"><path fill="#ffffff" d="M 115.214844 36.089844 C 117.191406 36.089844 118.800781 37.699219 118.800781 39.675781 C 118.800781 41.652344 117.191406 43.257812 115.214844 43.257812 C 113.238281 43.257812 111.628906 41.652344 111.628906 39.675781 C 111.628906 37.699219 113.238281 36.089844 115.214844 36.089844 Z M 115.214844 46.589844 C 119.027344 46.589844 122.132812 43.488281 122.132812 39.675781 C 122.132812 35.859375 119.027344 32.757812 115.214844 32.757812 C 111.402344 32.757812 108.296875 35.859375 108.296875 39.675781 C 108.296875 43.488281 111.402344 46.589844 115.214844 46.589844 " fill-opacity="1" fill-rule="nonzero"/></g><g clip-path="url(#602c48d59a)"><path fill="#ffffff" d="M 114.332031 62.527344 L 112.863281 62.527344 C 112.953125 62.9375 113.011719 63.382812 113.011719 63.882812 L 113.011719 123.335938 C 113.011719 127.640625 109.519531 131.132812 105.214844 131.132812 C 100.910156 131.132812 97.417969 127.640625 97.417969 123.335938 L 97.417969 63.882812 C 97.417969 63.382812 97.476562 62.9375 97.566406 62.527344 L 96.097656 62.527344 C 94.378906 62.527344 92.988281 61.136719 92.988281 59.417969 C 92.988281 57.703125 94.378906 56.3125 96.097656 56.3125 L 114.332031 56.3125 C 116.050781 56.3125 117.441406 57.703125 117.441406 59.417969 C 117.441406 61.136719 116.050781 62.527344 114.332031 62.527344 Z M 114.332031 51.441406 L 96.097656 51.441406 C 91.699219 51.441406 88.121094 55.019531 88.121094 59.417969 C 88.121094 62.542969 89.925781 65.253906 92.550781 66.558594 L 92.550781 123.335938 C 92.550781 130.320312 98.230469 136 105.214844 136 C 112.199219 136 117.878906 130.320312 117.878906 123.335938 L 117.878906 66.558594 C 120.503906 65.253906 122.308594 62.542969 122.308594 59.417969 C 122.308594 55.019531 118.730469 51.441406 114.332031 51.441406 " fill-opacity="1" fill-rule="nonzero"/></g><path fill="#ffffff" d="M 105.214844 69.5 C 102.59375 69.5 100.464844 69.96875 100.464844 72.589844 L 100.464844 122.332031 C 100.464844 124.957031 102.59375 127.082031 105.214844 127.082031 C 107.839844 127.082031 109.964844 124.957031 109.964844 122.332031 L 109.964844 72.589844 C 109.964844 69.96875 107.839844 69.5 105.214844 69.5 " fill-opacity="1" fill-rule="nonzero"/></svg>