<svg xmlns="http://www.w3.org/2000/svg" xmlns:xlink="http://www.w3.org/1999/xlink" width="226" zoomAndPan="magnify" viewBox="0 0 169.92 170.249993" height="226" preserveAspectRatio="xMidYMid meet" version="1.0"><defs><clipPath id="d6b3a023f8"><path d="M 0.332031 0 L 169.09375 0 L 169.09375 168.761719 L 0.332031 168.761719 Z M 0.332031 0 " clip-rule="nonzero"/></clipPath><clipPath id="6e4d0e30bf"><path d="M 84.714844 0 C 38.109375 0 0.332031 37.777344 0.332031 84.378906 C 0.332031 130.984375 38.109375 168.761719 84.714844 168.761719 C 131.316406 168.761719 169.09375 130.984375 169.09375 84.378906 C 169.09375 37.777344 131.316406 0 84.714844 0 Z M 84.714844 0 " clip-rule="nonzero"/></clipPath><clipPath id="76b545f70f"><path d="M 31.289062 42.90625 L 138.453125 42.90625 L 138.453125 125.511719 L 31.289062 125.511719 Z M 31.289062 42.90625 " clip-rule="nonzero"/></clipPath></defs><g clip-path="url(#d6b3a023f8)"><g clip-path="url(#6e4d0e30bf)"><path fill="#87bd94" d="M 0.332031 0 L 169.09375 0 L 169.09375 168.761719 L 0.332031 168.761719 Z M 0.332031 0 " fill-opacity="1" fill-rule="nonzero"/></g></g><g clip-path="url(#76b545f70f)"><path fill="#ffffff" d="M 41.492188 95.949219 L 44.890625 95.949219 L 44.890625 107.796875 C 44.890625 108.703125 45.628906 109.441406 46.539062 109.441406 C 47.445312 109.441406 48.183594 108.703125 48.183594 107.796875 L 48.183594 95.949219 L 50.058594 95.949219 C 50.132812 95.953125 50.207031 95.957031 50.285156 95.957031 C 50.898438 95.957031 51.695312 95.746094 52.457031 95.148438 C 54.339844 93.664062 55.410156 90.285156 55.640625 85.105469 C 55.8125 81.214844 55.957031 77.742188 68.570312 77.960938 C 68.574219 77.960938 68.582031 77.960938 68.585938 77.960938 L 89.863281 77.960938 C 91.972656 77.960938 93.789062 78.757812 94.972656 80.207031 C 96.171875 81.667969 96.597656 83.625 96.175781 85.722656 L 90.992188 111.53125 C 90.898438 112.011719 91.023438 112.515625 91.335938 112.894531 C 91.648438 113.277344 92.113281 113.5 92.605469 113.5 L 119.808594 113.5 C 120.71875 113.5 121.457031 112.761719 121.457031 111.855469 L 121.457031 71.488281 C 121.457031 63.324219 114.8125 56.679688 106.648438 56.679688 L 104.5625 56.679688 L 104.5625 44.613281 C 104.5625 43.707031 103.828125 42.96875 102.917969 42.96875 C 102.007812 42.96875 101.273438 43.707031 101.273438 44.613281 L 101.273438 56.679688 L 55.421875 56.679688 L 55.421875 50.867188 C 55.421875 49.957031 54.6875 49.222656 53.777344 49.222656 L 46.316406 49.222656 C 45.410156 49.222656 44.671875 49.957031 44.671875 50.867188 L 44.671875 56.679688 L 41.601562 56.679688 C 41.121094 56.679688 40.6875 56.886719 40.386719 57.21875 C 40.054688 57.519531 39.847656 57.953125 39.847656 58.433594 L 39.847656 94.304688 C 39.847656 95.210938 40.582031 95.949219 41.492188 95.949219 Z M 118.164062 71.488281 L 118.164062 110.207031 L 94.617188 110.207031 L 99.402344 86.371094 C 100.023438 83.289062 99.355469 80.359375 97.519531 78.121094 C 95.699219 75.894531 92.980469 74.667969 89.863281 74.667969 L 68.585938 74.667969 C 62.144531 74.609375 58.164062 75.410156 55.671875 77.253906 C 52.964844 79.253906 52.476562 82.140625 52.351562 84.960938 C 52.0625 91.546875 50.460938 92.5625 50.257812 92.660156 C 50.226562 92.660156 50.191406 92.65625 50.15625 92.65625 L 43.136719 92.65625 L 43.136719 59.96875 L 106.648438 59.96875 C 112.996094 59.96875 118.164062 65.136719 118.164062 71.488281 Z M 47.964844 52.511719 L 52.132812 52.511719 L 52.132812 56.679688 L 47.964844 56.679688 Z M 126.609375 117.007812 L 32.9375 117.007812 C 32.027344 117.007812 31.289062 117.746094 31.289062 118.652344 L 31.289062 124.140625 C 31.289062 125.046875 32.027344 125.785156 32.9375 125.785156 L 126.609375 125.785156 C 127.519531 125.785156 128.257812 125.046875 128.257812 124.140625 L 128.257812 118.652344 C 128.257812 117.746094 127.519531 117.007812 126.609375 117.007812 Z M 124.964844 122.492188 L 34.582031 122.492188 L 34.582031 120.300781 L 124.964844 120.300781 Z M 124.089844 75.109375 L 124.089844 61.945312 C 124.089844 61.035156 124.824219 60.300781 125.734375 60.300781 C 126.640625 60.300781 127.378906 61.035156 127.378906 61.945312 L 127.378906 75.109375 C 127.378906 76.015625 126.640625 76.753906 125.734375 76.753906 C 124.824219 76.753906 124.089844 76.015625 124.089844 75.109375 Z M 134.289062 49 L 134.070312 49 C 131.953125 49 130.230469 50.722656 130.230469 52.839844 L 130.230469 88.597656 C 130.230469 90.714844 131.953125 92.4375 134.070312 92.4375 L 134.289062 92.4375 C 136.40625 92.4375 138.128906 90.714844 138.128906 88.597656 L 138.128906 52.839844 C 138.128906 50.722656 136.40625 49 134.289062 49 Z M 134.835938 88.597656 C 134.835938 88.898438 134.585938 89.148438 134.289062 89.148438 L 134.070312 89.148438 C 133.773438 89.148438 133.519531 88.898438 133.519531 88.597656 L 133.519531 52.839844 C 133.519531 52.542969 133.773438 52.292969 134.070312 52.292969 L 134.289062 52.292969 C 134.585938 52.292969 134.835938 52.542969 134.835938 52.839844 Z M 107.472656 107.296875 C 111.539062 107.296875 114.730469 105.085938 114.730469 102.261719 C 114.730469 99.441406 111.539062 97.226562 107.472656 97.226562 C 103.402344 97.226562 100.210938 99.441406 100.210938 102.261719 C 100.210938 105.085938 103.402344 107.296875 107.472656 107.296875 Z M 107.472656 100.519531 C 109.933594 100.519531 111.4375 101.648438 111.4375 102.261719 C 111.4375 102.878906 109.933594 104.007812 107.472656 104.007812 C 105.007812 104.007812 103.503906 102.878906 103.503906 102.261719 C 103.503906 101.648438 105.007812 100.519531 107.472656 100.519531 Z M 107.472656 100.519531 " fill-opacity="1" fill-rule="nonzero"/></g></svg>