<svg xmlns="http://www.w3.org/2000/svg" xmlns:xlink="http://www.w3.org/1999/xlink" width="226" zoomAndPan="magnify" viewBox="0 0 169.92 170.249993" height="226" preserveAspectRatio="xMidYMid meet" version="1.0"><defs><clipPath id="527cee811a"><path d="M 0.332031 0 L 169.09375 0 L 169.09375 168.761719 L 0.332031 168.761719 Z M 0.332031 0 " clip-rule="nonzero"/></clipPath><clipPath id="2115946a3d"><path d="M 84.714844 0 C 38.109375 0 0.332031 37.777344 0.332031 84.378906 C 0.332031 130.984375 38.109375 168.761719 84.714844 168.761719 C 131.316406 168.761719 169.09375 130.984375 169.09375 84.378906 C 169.09375 37.777344 131.316406 0 84.714844 0 Z M 84.714844 0 " clip-rule="nonzero"/></clipPath><clipPath id="cec44ea0d4"><path d="M 30.503906 42.394531 L 139 42.394531 L 139 126.488281 L 30.503906 126.488281 Z M 30.503906 42.394531 " clip-rule="nonzero"/></clipPath></defs><g clip-path="url(#527cee811a)"><g clip-path="url(#2115946a3d)"><path fill="#bfa0e8" d="M 0.332031 0 L 169.09375 0 L 169.09375 168.761719 L 0.332031 168.761719 Z M 0.332031 0 " fill-opacity="1" fill-rule="nonzero"/></g></g><path fill="#ffffff" d="M 49.738281 84.375 C 49.164062 84.375 48.59375 84.433594 48.03125 84.542969 C 47.46875 84.65625 46.921875 84.820312 46.390625 85.042969 C 45.863281 85.261719 45.359375 85.53125 44.882812 85.847656 C 44.402344 86.167969 43.960938 86.53125 43.554688 86.9375 C 43.148438 87.34375 42.789062 87.785156 42.46875 88.261719 C 42.148438 88.738281 41.878906 89.242188 41.660156 89.773438 C 41.441406 90.304688 41.277344 90.851562 41.164062 91.414062 C 41.050781 91.976562 40.996094 92.542969 40.996094 93.117188 C 40.996094 93.691406 41.050781 94.261719 41.164062 94.824219 C 41.277344 95.386719 41.441406 95.933594 41.660156 96.464844 C 41.878906 96.996094 42.148438 97.5 42.46875 97.976562 C 42.789062 98.453125 43.148438 98.894531 43.554688 99.300781 C 43.960938 99.707031 44.402344 100.070312 44.882812 100.386719 C 45.359375 100.707031 45.863281 100.976562 46.390625 101.195312 C 46.921875 101.414062 47.46875 101.582031 48.03125 101.691406 C 48.59375 101.804688 49.164062 101.859375 49.738281 101.859375 C 50.3125 101.859375 50.878906 101.804688 51.445312 101.691406 C 52.007812 101.582031 52.554688 101.414062 53.082031 101.195312 C 53.613281 100.976562 54.117188 100.707031 54.59375 100.386719 C 55.074219 100.070312 55.515625 99.707031 55.917969 99.300781 C 56.324219 98.894531 56.6875 98.453125 57.007812 97.976562 C 57.324219 97.5 57.59375 96.996094 57.816406 96.464844 C 58.035156 95.933594 58.199219 95.386719 58.3125 94.824219 C 58.425781 94.261719 58.480469 93.691406 58.480469 93.117188 C 58.480469 92.542969 58.421875 91.976562 58.3125 91.414062 C 58.199219 90.851562 58.03125 90.304688 57.8125 89.773438 C 57.59375 89.246094 57.324219 88.742188 57.003906 88.265625 C 56.683594 87.785156 56.324219 87.34375 55.917969 86.941406 C 55.511719 86.535156 55.070312 86.171875 54.59375 85.851562 C 54.117188 85.535156 53.613281 85.265625 53.082031 85.042969 C 52.550781 84.824219 52.003906 84.65625 51.441406 84.546875 C 50.878906 84.433594 50.3125 84.375 49.738281 84.375 Z M 49.738281 98.363281 C 49.394531 98.363281 49.050781 98.332031 48.714844 98.261719 C 48.375 98.195312 48.046875 98.097656 47.730469 97.964844 C 47.414062 97.832031 47.109375 97.671875 46.824219 97.480469 C 46.539062 97.289062 46.273438 97.070312 46.027344 96.828125 C 45.785156 96.585938 45.566406 96.320312 45.375 96.03125 C 45.183594 95.746094 45.023438 95.445312 44.890625 95.125 C 44.761719 94.808594 44.660156 94.480469 44.59375 94.140625 C 44.527344 93.804688 44.492188 93.464844 44.492188 93.117188 C 44.492188 92.773438 44.527344 92.433594 44.59375 92.09375 C 44.660156 91.757812 44.761719 91.429688 44.890625 91.109375 C 45.023438 90.792969 45.183594 90.492188 45.375 90.203125 C 45.566406 89.917969 45.785156 89.652344 46.027344 89.410156 C 46.273438 89.164062 46.539062 88.949219 46.824219 88.757812 C 47.109375 88.566406 47.414062 88.402344 47.730469 88.273438 C 48.046875 88.140625 48.375 88.042969 48.714844 87.972656 C 49.050781 87.90625 49.394531 87.875 49.738281 87.875 C 50.082031 87.875 50.421875 87.90625 50.761719 87.972656 C 51.097656 88.042969 51.425781 88.140625 51.746094 88.273438 C 52.0625 88.402344 52.367188 88.566406 52.652344 88.757812 C 52.9375 88.949219 53.203125 89.164062 53.445312 89.410156 C 53.691406 89.652344 53.90625 89.917969 54.097656 90.203125 C 54.289062 90.492188 54.453125 90.792969 54.585938 91.109375 C 54.714844 91.429688 54.816406 91.757812 54.882812 92.09375 C 54.949219 92.433594 54.984375 92.773438 54.984375 93.117188 C 54.984375 93.464844 54.949219 93.804688 54.882812 94.140625 C 54.8125 94.480469 54.714844 94.808594 54.582031 95.125 C 54.449219 95.441406 54.289062 95.746094 54.097656 96.03125 C 53.90625 96.316406 53.6875 96.582031 53.445312 96.824219 C 53.203125 97.070312 52.9375 97.285156 52.652344 97.476562 C 52.363281 97.667969 52.0625 97.832031 51.746094 97.964844 C 51.425781 98.09375 51.097656 98.195312 50.761719 98.261719 C 50.421875 98.328125 50.082031 98.363281 49.738281 98.363281 Z M 49.738281 98.363281 " fill-opacity="1" fill-rule="nonzero"/><path fill="#ffffff" d="M 119.617188 84.375 C 119.042969 84.375 118.476562 84.433594 117.914062 84.542969 C 117.351562 84.65625 116.804688 84.820312 116.273438 85.042969 C 115.742188 85.261719 115.238281 85.53125 114.761719 85.847656 C 114.285156 86.167969 113.84375 86.53125 113.4375 86.9375 C 113.03125 87.34375 112.667969 87.785156 112.351562 88.261719 C 112.03125 88.738281 111.761719 89.242188 111.542969 89.773438 C 111.320312 90.304688 111.15625 90.851562 111.042969 91.414062 C 110.933594 91.976562 110.875 92.542969 110.875 93.117188 C 110.875 93.691406 110.933594 94.261719 111.042969 94.824219 C 111.15625 95.386719 111.320312 95.933594 111.542969 96.464844 C 111.761719 96.996094 112.03125 97.5 112.351562 97.976562 C 112.667969 98.453125 113.03125 98.894531 113.4375 99.300781 C 113.84375 99.707031 114.285156 100.070312 114.761719 100.386719 C 115.238281 100.707031 115.742188 100.976562 116.273438 101.195312 C 116.804688 101.414062 117.351562 101.582031 117.914062 101.691406 C 118.476562 101.804688 119.042969 101.859375 119.617188 101.859375 C 120.191406 101.859375 120.761719 101.804688 121.324219 101.691406 C 121.886719 101.582031 122.433594 101.414062 122.964844 101.195312 C 123.496094 100.976562 124 100.707031 124.476562 100.386719 C 124.953125 100.070312 125.394531 99.707031 125.800781 99.300781 C 126.207031 98.894531 126.570312 98.453125 126.886719 97.976562 C 127.207031 97.5 127.476562 96.996094 127.695312 96.464844 C 127.914062 95.933594 128.082031 95.386719 128.195312 94.824219 C 128.304688 94.261719 128.363281 93.691406 128.363281 93.117188 C 128.359375 92.542969 128.304688 91.976562 128.191406 91.414062 C 128.078125 90.851562 127.914062 90.304688 127.691406 89.773438 C 127.472656 89.246094 127.203125 88.742188 126.886719 88.265625 C 126.566406 87.785156 126.203125 87.34375 125.796875 86.941406 C 125.390625 86.535156 124.949219 86.171875 124.472656 85.851562 C 123.996094 85.535156 123.492188 85.265625 122.964844 85.042969 C 122.433594 84.824219 121.886719 84.65625 121.324219 84.546875 C 120.761719 84.433594 120.191406 84.375 119.617188 84.375 Z M 119.617188 98.363281 C 119.273438 98.363281 118.933594 98.332031 118.59375 98.261719 C 118.257812 98.195312 117.929688 98.097656 117.613281 97.964844 C 117.292969 97.832031 116.992188 97.671875 116.703125 97.480469 C 116.417969 97.289062 116.152344 97.070312 115.910156 96.828125 C 115.667969 96.585938 115.449219 96.320312 115.257812 96.03125 C 115.066406 95.746094 114.90625 95.445312 114.773438 95.125 C 114.640625 94.808594 114.542969 94.480469 114.472656 94.140625 C 114.40625 93.804688 114.375 93.464844 114.375 93.117188 C 114.375 92.773438 114.40625 92.433594 114.472656 92.09375 C 114.542969 91.757812 114.640625 91.429688 114.773438 91.109375 C 114.90625 90.792969 115.066406 90.492188 115.257812 90.203125 C 115.449219 89.917969 115.667969 89.652344 115.910156 89.410156 C 116.152344 89.164062 116.417969 88.949219 116.703125 88.757812 C 116.992188 88.566406 117.292969 88.402344 117.613281 88.273438 C 117.929688 88.140625 118.257812 88.042969 118.59375 87.972656 C 118.933594 87.90625 119.273438 87.875 119.617188 87.875 C 119.964844 87.875 120.304688 87.90625 120.640625 87.972656 C 120.980469 88.042969 121.308594 88.140625 121.625 88.273438 C 121.945312 88.402344 122.246094 88.566406 122.53125 88.757812 C 122.820312 88.949219 123.085938 89.164062 123.328125 89.410156 C 123.570312 89.652344 123.789062 89.917969 123.980469 90.203125 C 124.171875 90.492188 124.332031 90.792969 124.464844 91.109375 C 124.597656 91.429688 124.695312 91.757812 124.761719 92.09375 C 124.832031 92.433594 124.863281 92.773438 124.863281 93.117188 C 124.863281 93.464844 124.828125 93.804688 124.761719 94.140625 C 124.695312 94.480469 124.59375 94.808594 124.464844 95.125 C 124.332031 95.441406 124.167969 95.746094 123.980469 96.03125 C 123.789062 96.316406 123.570312 96.582031 123.328125 96.824219 C 123.082031 97.070312 122.816406 97.285156 122.53125 97.476562 C 122.246094 97.667969 121.941406 97.832031 121.625 97.964844 C 121.308594 98.09375 120.980469 98.195312 120.640625 98.261719 C 120.304688 98.328125 119.964844 98.363281 119.617188 98.363281 Z M 119.617188 98.363281 " fill-opacity="1" fill-rule="nonzero"/><path fill="#ffffff" d="M 102.191406 84.375 L 67.222656 84.375 C 66.972656 84.375 66.734375 84.425781 66.503906 84.53125 C 66.277344 84.632812 66.078125 84.78125 65.914062 84.96875 C 65.746094 85.15625 65.625 85.371094 65.550781 85.609375 C 65.476562 85.847656 65.457031 86.09375 65.488281 86.339844 L 67.238281 100.328125 C 67.261719 100.539062 67.324219 100.742188 67.425781 100.929688 C 67.523438 101.117188 67.65625 101.28125 67.8125 101.421875 C 67.972656 101.5625 68.152344 101.671875 68.351562 101.746094 C 68.550781 101.824219 68.757812 101.859375 68.972656 101.859375 L 100.445312 101.859375 C 100.65625 101.859375 100.863281 101.824219 101.0625 101.746094 C 101.261719 101.671875 101.441406 101.5625 101.601562 101.421875 C 101.761719 101.28125 101.890625 101.117188 101.992188 100.929688 C 102.089844 100.742188 102.152344 100.539062 102.179688 100.328125 L 103.929688 86.339844 C 103.960938 86.09375 103.9375 85.847656 103.863281 85.609375 C 103.789062 85.371094 103.671875 85.15625 103.503906 84.96875 C 103.339844 84.78125 103.140625 84.632812 102.914062 84.53125 C 102.683594 84.425781 102.445312 84.375 102.191406 84.375 Z M 98.902344 98.363281 L 70.515625 98.363281 L 69.203125 87.875 L 100.210938 87.875 Z M 98.902344 98.363281 " fill-opacity="1" fill-rule="nonzero"/><g clip-path="url(#cec44ea0d4)"><path fill="#ffffff" d="M 130.167969 73.886719 L 132.792969 73.886719 C 133.195312 73.882812 133.589844 73.84375 133.984375 73.765625 C 134.378906 73.6875 134.761719 73.570312 135.132812 73.417969 C 135.503906 73.261719 135.855469 73.074219 136.191406 72.851562 C 136.523438 72.628906 136.832031 72.375 137.117188 72.089844 C 137.402344 71.804688 137.65625 71.496094 137.878906 71.164062 C 138.101562 70.828125 138.289062 70.476562 138.445312 70.105469 C 138.597656 69.734375 138.714844 69.351562 138.792969 68.957031 C 138.871094 68.566406 138.910156 68.167969 138.910156 67.765625 L 138.910156 66.015625 C 138.910156 65.613281 138.871094 65.21875 138.792969 64.824219 C 138.714844 64.429688 138.597656 64.046875 138.445312 63.675781 C 138.289062 63.304688 138.101562 62.953125 137.878906 62.617188 C 137.65625 62.285156 137.402344 61.976562 137.117188 61.691406 C 136.832031 61.40625 136.523438 61.152344 136.191406 60.929688 C 135.855469 60.707031 135.503906 60.519531 135.132812 60.363281 C 134.761719 60.210938 134.378906 60.09375 133.984375 60.015625 C 133.589844 59.9375 133.195312 59.898438 132.792969 59.898438 L 130.167969 59.898438 C 129.9375 59.898438 129.714844 59.941406 129.5 60.03125 C 129.285156 60.117188 129.097656 60.246094 128.933594 60.410156 C 128.769531 60.574219 128.644531 60.761719 128.554688 60.976562 C 128.464844 61.191406 128.421875 61.414062 128.421875 61.644531 L 128.421875 65.140625 L 126.683594 65.140625 L 124.921875 51.046875 L 124.921875 48.53125 C 124.921875 48.128906 124.882812 47.730469 124.804688 47.339844 C 124.726562 46.945312 124.609375 46.5625 124.457031 46.191406 C 124.300781 45.820312 124.113281 45.46875 123.890625 45.132812 C 123.667969 44.800781 123.414062 44.492188 123.128906 44.207031 C 122.84375 43.921875 122.535156 43.667969 122.203125 43.445312 C 121.867188 43.222656 121.515625 43.035156 121.144531 42.878906 C 120.773438 42.726562 120.390625 42.609375 119.996094 42.53125 C 119.605469 42.453125 119.207031 42.414062 118.804688 42.410156 L 50.613281 42.410156 C 50.210938 42.414062 49.8125 42.453125 49.417969 42.53125 C 49.023438 42.609375 48.640625 42.726562 48.269531 42.878906 C 47.898438 43.035156 47.546875 43.222656 47.214844 43.445312 C 46.878906 43.667969 46.570312 43.921875 46.285156 44.207031 C 46.003906 44.492188 45.75 44.800781 45.527344 45.132812 C 45.300781 45.46875 45.113281 45.820312 44.960938 46.191406 C 44.804688 46.5625 44.691406 46.945312 44.609375 47.339844 C 44.53125 47.730469 44.492188 48.128906 44.492188 48.53125 L 44.492188 51.046875 L 42.730469 65.140625 L 40.996094 65.140625 L 40.996094 61.644531 C 40.996094 61.414062 40.949219 61.191406 40.863281 60.976562 C 40.773438 60.761719 40.648438 60.574219 40.484375 60.410156 C 40.320312 60.246094 40.128906 60.117188 39.917969 60.03125 C 39.703125 59.941406 39.480469 59.898438 39.246094 59.898438 L 36.625 59.898438 C 36.222656 59.898438 35.824219 59.9375 35.429688 60.015625 C 35.035156 60.09375 34.65625 60.210938 34.285156 60.363281 C 33.914062 60.519531 33.558594 60.707031 33.226562 60.929688 C 32.890625 61.152344 32.582031 61.40625 32.300781 61.691406 C 32.015625 61.976562 31.761719 62.285156 31.539062 62.617188 C 31.316406 62.953125 31.125 63.304688 30.972656 63.675781 C 30.816406 64.046875 30.703125 64.429688 30.625 64.824219 C 30.542969 65.21875 30.503906 65.613281 30.503906 66.015625 L 30.503906 67.765625 C 30.503906 68.167969 30.542969 68.566406 30.625 68.957031 C 30.703125 69.351562 30.816406 69.734375 30.972656 70.105469 C 31.125 70.476562 31.316406 70.828125 31.539062 71.164062 C 31.761719 71.496094 32.015625 71.804688 32.300781 72.089844 C 32.582031 72.375 32.890625 72.628906 33.226562 72.851562 C 33.558594 73.074219 33.914062 73.261719 34.285156 73.417969 C 34.65625 73.570312 35.035156 73.6875 35.429688 73.765625 C 35.824219 73.84375 36.222656 73.882812 36.625 73.886719 L 39.246094 73.886719 C 39.480469 73.886719 39.703125 73.839844 39.917969 73.75 C 40.128906 73.664062 40.320312 73.535156 40.484375 73.371094 C 40.648438 73.207031 40.773438 73.019531 40.863281 72.804688 C 40.949219 72.589844 40.996094 72.367188 40.996094 72.136719 L 40.996094 68.640625 L 42.292969 68.640625 L 41.199219 77.382812 L 40.121094 77.382812 C 39.71875 77.382812 39.320312 77.421875 38.929688 77.5 C 38.535156 77.578125 38.152344 77.695312 37.78125 77.851562 C 37.410156 78.003906 37.058594 78.191406 36.722656 78.414062 C 36.390625 78.640625 36.078125 78.890625 35.796875 79.175781 C 35.511719 79.460938 35.257812 79.769531 35.035156 80.101562 C 34.8125 80.4375 34.621094 80.789062 34.46875 81.160156 C 34.316406 81.53125 34.199219 81.914062 34.121094 82.308594 C 34.042969 82.703125 34 83.101562 34 83.5 L 34 105.359375 L 32.253906 105.359375 C 32.019531 105.359375 31.796875 105.402344 31.582031 105.492188 C 31.371094 105.578125 31.179688 105.707031 31.015625 105.871094 C 30.851562 106.035156 30.726562 106.222656 30.636719 106.4375 C 30.546875 106.652344 30.503906 106.875 30.503906 107.105469 L 30.503906 114.101562 C 30.503906 114.332031 30.546875 114.554688 30.636719 114.769531 C 30.726562 114.984375 30.851562 115.171875 31.015625 115.335938 C 31.179688 115.5 31.371094 115.628906 31.582031 115.714844 C 31.796875 115.804688 32.019531 115.847656 32.253906 115.847656 L 34 115.847656 L 34 120.21875 C 34 120.621094 34.042969 121.019531 34.121094 121.414062 C 34.199219 121.808594 34.316406 122.191406 34.46875 122.5625 C 34.621094 122.933594 34.8125 123.285156 35.035156 123.617188 C 35.257812 123.953125 35.511719 124.261719 35.796875 124.546875 C 36.078125 124.828125 36.390625 125.082031 36.722656 125.308594 C 37.058594 125.53125 37.410156 125.71875 37.78125 125.871094 C 38.152344 126.027344 38.535156 126.144531 38.929688 126.222656 C 39.320312 126.300781 39.71875 126.339844 40.121094 126.339844 L 45.367188 126.339844 C 45.769531 126.339844 46.167969 126.300781 46.558594 126.222656 C 46.953125 126.144531 47.335938 126.027344 47.707031 125.871094 C 48.078125 125.71875 48.429688 125.53125 48.765625 125.308594 C 49.097656 125.082031 49.40625 124.828125 49.691406 124.546875 C 49.976562 124.261719 50.230469 123.953125 50.453125 123.617188 C 50.675781 123.285156 50.863281 122.933594 51.019531 122.5625 C 51.171875 122.191406 51.289062 121.808594 51.367188 121.414062 C 51.445312 121.019531 51.484375 120.621094 51.488281 120.21875 L 51.488281 115.847656 L 117.929688 115.847656 L 117.929688 120.21875 C 117.929688 120.621094 117.96875 121.019531 118.046875 121.414062 C 118.128906 121.808594 118.242188 122.191406 118.398438 122.5625 C 118.550781 122.933594 118.738281 123.285156 118.964844 123.617188 C 119.1875 123.953125 119.441406 124.261719 119.722656 124.546875 C 120.007812 124.828125 120.316406 125.082031 120.652344 125.308594 C 120.984375 125.53125 121.335938 125.71875 121.707031 125.871094 C 122.078125 126.027344 122.460938 126.144531 122.855469 126.222656 C 123.25 126.300781 123.648438 126.339844 124.050781 126.339844 L 129.296875 126.339844 C 129.695312 126.339844 130.09375 126.300781 130.488281 126.222656 C 130.882812 126.144531 131.265625 126.027344 131.636719 125.871094 C 132.007812 125.71875 132.359375 125.53125 132.695312 125.308594 C 133.027344 125.082031 133.335938 124.828125 133.621094 124.546875 C 133.90625 124.261719 134.15625 123.953125 134.382812 123.617188 C 134.605469 123.285156 134.792969 122.933594 134.945312 122.5625 C 135.101562 122.191406 135.21875 121.808594 135.296875 121.414062 C 135.375 121.019531 135.414062 120.621094 135.414062 120.21875 L 135.414062 115.847656 L 137.164062 115.847656 C 137.394531 115.847656 137.617188 115.804688 137.832031 115.714844 C 138.046875 115.628906 138.234375 115.5 138.398438 115.335938 C 138.5625 115.171875 138.691406 114.984375 138.777344 114.769531 C 138.867188 114.554688 138.910156 114.332031 138.910156 114.101562 L 138.910156 107.105469 C 138.910156 106.875 138.867188 106.652344 138.777344 106.4375 C 138.691406 106.222656 138.5625 106.035156 138.398438 105.871094 C 138.234375 105.707031 138.046875 105.578125 137.832031 105.492188 C 137.617188 105.402344 137.394531 105.359375 137.164062 105.359375 L 135.414062 105.359375 L 135.414062 83.5 C 135.414062 83.101562 135.375 82.703125 135.296875 82.308594 C 135.21875 81.914062 135.101562 81.53125 134.945312 81.160156 C 134.792969 80.789062 134.605469 80.4375 134.382812 80.101562 C 134.15625 79.769531 133.90625 79.460938 133.621094 79.175781 C 133.335938 78.890625 133.027344 78.640625 132.695312 78.414062 C 132.359375 78.191406 132.007812 78.003906 131.636719 77.851562 C 131.265625 77.695312 130.882812 77.578125 130.488281 77.5 C 130.09375 77.421875 129.695312 77.382812 129.296875 77.382812 L 128.214844 77.382812 L 127.121094 68.640625 L 128.421875 68.640625 L 128.421875 72.136719 C 128.421875 72.367188 128.464844 72.589844 128.554688 72.804688 C 128.644531 73.019531 128.769531 73.207031 128.933594 73.371094 C 129.097656 73.535156 129.285156 73.664062 129.5 73.75 C 129.714844 73.839844 129.9375 73.886719 130.167969 73.886719 Z M 131.917969 63.394531 L 132.792969 63.394531 C 133.140625 63.394531 133.472656 63.460938 133.796875 63.59375 C 134.117188 63.726562 134.398438 63.917969 134.644531 64.164062 C 134.890625 64.410156 135.082031 64.691406 135.214844 65.011719 C 135.347656 65.335938 135.414062 65.667969 135.414062 66.015625 L 135.414062 67.765625 C 135.414062 68.113281 135.347656 68.449219 135.214844 68.769531 C 135.082031 69.089844 134.890625 69.375 134.644531 69.621094 C 134.398438 69.863281 134.117188 70.054688 133.796875 70.1875 C 133.472656 70.320312 133.140625 70.386719 132.792969 70.386719 L 131.917969 70.386719 Z M 37.5 70.386719 L 36.625 70.386719 C 36.277344 70.386719 35.941406 70.320312 35.621094 70.1875 C 35.300781 70.054688 35.015625 69.863281 34.769531 69.621094 C 34.523438 69.375 34.335938 69.089844 34.203125 68.769531 C 34.070312 68.449219 34 68.113281 34 67.765625 L 34 66.015625 C 34 65.667969 34.070312 65.335938 34.203125 65.011719 C 34.335938 64.691406 34.523438 64.410156 34.769531 64.164062 C 35.015625 63.917969 35.300781 63.726562 35.621094 63.59375 C 35.941406 63.460938 36.277344 63.394531 36.625 63.394531 L 37.5 63.394531 Z M 47.988281 48.53125 C 47.988281 48.183594 48.054688 47.847656 48.191406 47.527344 C 48.324219 47.207031 48.511719 46.921875 48.757812 46.675781 C 49.003906 46.433594 49.289062 46.242188 49.609375 46.109375 C 49.929688 45.976562 50.265625 45.910156 50.613281 45.910156 L 118.804688 45.910156 C 119.152344 45.910156 119.484375 45.976562 119.808594 46.109375 C 120.128906 46.242188 120.410156 46.433594 120.65625 46.675781 C 120.902344 46.921875 121.09375 47.207031 121.226562 47.527344 C 121.359375 47.847656 121.425781 48.183594 121.425781 48.53125 L 121.425781 49.40625 L 47.988281 49.40625 Z M 47.785156 52.902344 L 121.632812 52.902344 L 124.691406 77.382812 L 44.722656 77.382812 Z M 47.988281 120.21875 C 47.988281 120.566406 47.921875 120.902344 47.789062 121.222656 C 47.65625 121.546875 47.464844 121.828125 47.21875 122.074219 C 46.976562 122.320312 46.691406 122.511719 46.371094 122.644531 C 46.050781 122.777344 45.714844 122.84375 45.367188 122.84375 L 40.121094 122.84375 C 39.773438 122.84375 39.4375 122.777344 39.117188 122.644531 C 38.796875 122.511719 38.511719 122.320312 38.265625 122.074219 C 38.019531 121.828125 37.832031 121.546875 37.699219 121.222656 C 37.566406 120.902344 37.5 120.566406 37.5 120.21875 L 37.5 115.847656 L 47.988281 115.847656 Z M 131.917969 120.21875 C 131.917969 120.566406 131.851562 120.902344 131.71875 121.222656 C 131.585938 121.546875 131.394531 121.828125 131.148438 122.074219 C 130.902344 122.320312 130.621094 122.511719 130.296875 122.644531 C 129.976562 122.777344 129.644531 122.84375 129.296875 122.84375 L 124.050781 122.84375 C 123.703125 122.84375 123.367188 122.777344 123.046875 122.644531 C 122.726562 122.511719 122.441406 122.320312 122.195312 122.074219 C 121.949219 121.828125 121.761719 121.546875 121.628906 121.222656 C 121.492188 120.902344 121.425781 120.566406 121.425781 120.21875 L 121.425781 115.847656 L 131.917969 115.847656 Z M 135.414062 108.855469 L 135.414062 112.351562 L 34 112.351562 L 34 108.855469 Z M 129.296875 80.878906 C 129.644531 80.878906 129.976562 80.945312 130.296875 81.078125 C 130.621094 81.210938 130.902344 81.402344 131.148438 81.648438 C 131.394531 81.894531 131.585938 82.175781 131.71875 82.5 C 131.851562 82.820312 131.917969 83.152344 131.917969 83.5 L 131.917969 105.359375 L 37.5 105.359375 L 37.5 83.5 C 37.5 83.152344 37.566406 82.820312 37.699219 82.5 C 37.832031 82.175781 38.019531 81.894531 38.265625 81.648438 C 38.511719 81.402344 38.796875 81.210938 39.117188 81.078125 C 39.4375 80.945312 39.773438 80.878906 40.121094 80.878906 Z M 129.296875 80.878906 " fill-opacity="1" fill-rule="nonzero"/></g></svg>