<svg xmlns="http://www.w3.org/2000/svg" xmlns:xlink="http://www.w3.org/1999/xlink" width="226" zoomAndPan="magnify" viewBox="0 0 169.92 170.249993" height="226" preserveAspectRatio="xMidYMid meet" version="1.0"><defs><clipPath id="5ed4538a62"><path d="M 0.332031 0 L 169.09375 0 L 169.09375 168.761719 L 0.332031 168.761719 Z M 0.332031 0 " clip-rule="nonzero"/></clipPath><clipPath id="2225a51c2b"><path d="M 84.714844 0 C 38.109375 0 0.332031 37.777344 0.332031 84.378906 C 0.332031 130.984375 38.109375 168.761719 84.714844 168.761719 C 131.316406 168.761719 169.09375 130.984375 169.09375 84.378906 C 169.09375 37.777344 131.316406 0 84.714844 0 Z M 84.714844 0 " clip-rule="nonzero"/></clipPath><clipPath id="158525120b"><path d="M 42.710938 76.183594 L 127.550781 76.183594 L 127.550781 137.417969 L 42.710938 137.417969 Z M 42.710938 76.183594 " clip-rule="nonzero"/></clipPath><clipPath id="7c1419d580"><path d="M 31.128906 73 L 89 73 L 89 106 L 31.128906 106 Z M 31.128906 73 " clip-rule="nonzero"/></clipPath><clipPath id="9bb0d4cda2"><path d="M 81.511719 73.867188 L 138.292969 73.867188 L 138.292969 105.714844 L 81.511719 105.714844 Z M 81.511719 73.867188 " clip-rule="nonzero"/></clipPath></defs><g clip-path="url(#5ed4538a62)"><g clip-path="url(#2225a51c2b)"><path fill="#b7b7b7" d="M 0.332031 0 L 169.09375 0 L 169.09375 168.761719 L 0.332031 168.761719 Z M 0.332031 0 " fill-opacity="1" fill-rule="nonzero"/></g></g><g clip-path="url(#158525120b)"><path fill="#ffffff" d="M 47.289062 76.3125 L 47.289062 77.003906 L 42.832031 77.003906 L 42.832031 76.3125 Z M 47.289062 92.09375 L 47.289062 121.945312 L 85.183594 133.300781 L 123.078125 121.945312 L 123.078125 91.875 L 127.53125 91.875 L 127.53125 125.253906 L 125.941406 125.730469 L 85.816406 137.753906 L 84.546875 137.753906 L 44.425781 125.730469 L 42.832031 125.253906 L 42.832031 92.09375 Z M 123.078125 76.785156 L 123.078125 76.3125 L 127.53125 76.3125 L 127.53125 76.785156 L 123.078125 76.785156 " fill-opacity="1" fill-rule="nonzero"/></g><path fill="#ffffff" d="M 82.957031 135.621094 L 82.957031 91.636719 L 87.410156 91.636719 L 87.410156 135.621094 L 82.957031 135.621094 " fill-opacity="1" fill-rule="nonzero"/><g clip-path="url(#7c1419d580)"><path fill="#ffffff" d="M 31.925781 86.679688 L 40.78125 74.800781 C 41.414062 73.949219 42.539062 73.679688 43.46875 74.09375 L 86.546875 89.195312 L 85.816406 91.292969 L 86.550781 89.191406 C 87.710938 89.601562 88.324219 90.871094 87.917969 92.03125 C 87.828125 92.285156 87.699219 92.511719 87.539062 92.707031 L 78.679688 104.585938 C 78.046875 105.4375 76.921875 105.703125 75.992188 105.292969 L 32.917969 90.1875 L 33.648438 88.09375 L 32.910156 90.195312 C 31.75 89.785156 31.140625 88.515625 31.546875 87.355469 C 31.632812 87.101562 31.761719 86.875 31.925781 86.679688 Z M 43.375 78.769531 L 37.238281 87 L 76.085938 100.617188 L 82.222656 92.386719 L 43.375 78.769531 " fill-opacity="1" fill-rule="nonzero"/></g><g clip-path="url(#9bb0d4cda2)"><path fill="#ffffff" d="M 132.5 87 L 126.359375 78.769531 L 87.511719 92.386719 L 93.652344 100.617188 Z M 128.953125 74.800781 L 137.8125 86.679688 C 137.972656 86.875 138.101562 87.101562 138.191406 87.355469 C 138.597656 88.515625 137.988281 89.785156 136.828125 90.195312 L 136.089844 88.09375 L 136.820312 90.1875 L 93.746094 105.292969 C 92.816406 105.703125 91.691406 105.4375 91.054688 104.585938 L 91.058594 104.585938 L 82.199219 92.707031 C 82.039062 92.511719 81.910156 92.285156 81.820312 92.03125 C 81.414062 90.871094 82.023438 89.601562 83.183594 89.191406 L 83.921875 91.292969 L 83.191406 89.195312 L 126.265625 74.09375 C 127.195312 73.679688 128.320312 73.949219 128.957031 74.800781 L 128.953125 74.800781 " fill-opacity="1" fill-rule="nonzero"/></g><path fill="#ffffff" d="M 44.425781 75.238281 L 73.148438 66.632812 L 74.417969 70.894531 L 45.695312 79.5 Z M 94.410156 65.789062 L 125.941406 75.238281 L 124.671875 79.5 L 93.140625 70.054688 L 94.410156 65.789062 " fill-opacity="1" fill-rule="nonzero"/><path fill="#ffffff" d="M 61.484375 35.464844 C 64.867188 35.464844 67.929688 36.835938 70.144531 39.054688 C 72.363281 41.269531 73.734375 44.332031 73.734375 47.714844 C 73.734375 51.097656 72.363281 54.160156 70.144531 56.375 C 67.929688 58.589844 64.867188 59.960938 61.484375 59.960938 C 58.101562 59.960938 55.039062 58.589844 52.824219 56.375 C 50.605469 54.160156 49.234375 51.097656 49.234375 47.714844 C 49.234375 44.332031 50.605469 41.269531 52.824219 39.054688 C 55.039062 36.835938 58.101562 35.464844 61.484375 35.464844 Z M 66.996094 42.203125 C 65.585938 40.792969 63.636719 39.921875 61.484375 39.921875 C 59.332031 39.921875 57.382812 40.792969 55.972656 42.203125 C 54.5625 43.613281 53.691406 45.5625 53.691406 47.714844 C 53.691406 49.867188 54.5625 51.816406 55.972656 53.226562 C 57.382812 54.636719 59.332031 55.507812 61.484375 55.507812 C 63.636719 55.507812 65.585938 54.636719 66.996094 53.226562 C 68.40625 51.816406 69.28125 49.867188 69.28125 47.714844 C 69.28125 45.5625 68.40625 43.613281 66.996094 42.203125 " fill-opacity="1" fill-rule="nonzero"/><path fill="#ffffff" d="M 106.027344 31.011719 C 110.023438 31.011719 113.640625 32.632812 116.261719 35.253906 C 118.878906 37.871094 120.5 41.488281 120.5 45.488281 C 120.5 49.484375 118.878906 53.105469 116.261719 55.722656 C 113.640625 58.34375 110.023438 59.960938 106.027344 59.960938 C 102.027344 59.960938 98.410156 58.34375 95.789062 55.722656 C 93.171875 53.105469 91.550781 49.484375 91.550781 45.488281 C 91.550781 41.488281 93.171875 37.871094 95.789062 35.253906 C 98.410156 32.632812 102.027344 31.011719 106.027344 31.011719 Z M 113.113281 38.402344 C 111.296875 36.589844 108.792969 35.464844 106.027344 35.464844 C 103.257812 35.464844 100.753906 36.589844 98.9375 38.402344 C 97.125 40.214844 96.003906 42.71875 96.003906 45.488281 C 96.003906 48.253906 97.125 50.761719 98.9375 52.574219 C 100.753906 54.386719 103.257812 55.507812 106.027344 55.507812 C 108.792969 55.507812 111.296875 54.386719 113.113281 52.574219 C 114.925781 50.761719 116.046875 48.253906 116.046875 45.488281 C 116.046875 42.71875 114.925781 40.214844 113.113281 38.402344 " fill-opacity="1" fill-rule="nonzero"/><path fill="#ffffff" d="M 83.753906 55.507812 C 87.136719 55.507812 90.199219 56.878906 92.414062 59.097656 C 94.632812 61.3125 96.003906 64.375 96.003906 67.757812 C 96.003906 71.140625 94.632812 74.203125 92.414062 76.417969 C 90.199219 78.636719 87.136719 80.007812 83.753906 80.007812 C 80.375 80.007812 77.308594 78.636719 75.09375 76.417969 C 72.878906 74.203125 71.507812 71.140625 71.507812 67.757812 C 71.507812 64.375 72.878906 61.3125 75.09375 59.097656 C 77.3125 56.878906 80.375 55.507812 83.753906 55.507812 Z M 89.265625 62.246094 C 87.855469 60.835938 85.90625 59.960938 83.753906 59.960938 C 81.601562 59.960938 79.652344 60.835938 78.242188 62.246094 C 76.832031 63.65625 75.960938 65.605469 75.960938 67.757812 C 75.960938 69.910156 76.832031 71.859375 78.242188 73.269531 C 79.652344 74.679688 81.601562 75.550781 83.753906 75.550781 C 85.90625 75.550781 87.855469 74.679688 89.265625 73.269531 C 90.675781 71.859375 91.550781 69.910156 91.550781 67.757812 C 91.550781 65.605469 90.675781 63.65625 89.265625 62.246094 " fill-opacity="1" fill-rule="nonzero"/></svg>